<?xml version="1.0" encoding="UTF-8"?>
<!DOCTYPE svg PUBLIC "-//W3C//DTD SVG 1.1//EN" "http://www.w3.org/Graphics/SVG/1.1/DTD/svg11.dtd">
<!-- Creator: CorelDRAW 2020 (64 Bit) -->
<svg xmlns="http://www.w3.org/2000/svg" xml:space="preserve" width="6.8792mm" height="7.2316mm" version="1.1" style="shape-rendering:geometricPrecision; text-rendering:geometricPrecision; image-rendering:optimizeQuality; fill-rule:evenodd; clip-rule:evenodd"
viewBox="0 0 27.02 28.4"
 xmlns:xlink="http://www.w3.org/1999/xlink"
 xmlns:xodm="http://www.corel.com/coreldraw/odm/2003">
 <defs>
  <style type="text/css">
   <![CDATA[
    .str1 {stroke:#8257E5;stroke-width:2.08;stroke-linecap:round;stroke-linejoin:round;stroke-miterlimit:22.9256}
    .str0 {stroke:#AD1E18;stroke-width:2.08;stroke-linecap:round;stroke-linejoin:round;stroke-miterlimit:22.9256}
    .fil0 {fill:none}
   ]]>
  </style>
 </defs>
 <g id="Camada_x0020_1">
  <metadata id="CorelCorpID_0Corel-Layer"/>
  <line class="fil0 str0" x1="13.51" y1="14.2" x2="13.51" y2= "7.97" />
  <line class="fil0 str1" x1="13.51" y1="19.74" x2="13.51" y2= "19.74" />
  <path class="fil0 str0" d="M1.04 17.5l0 -6.6c0,-2.22 1.18,-4.27 3.1,-5.39l6.23 -3.63c1.94,-1.13 4.33,-1.13 6.27,0l6.23 3.63c1.92,1.12 3.1,3.17 3.1,5.39l0 6.6c0,2.22 -1.18,4.27 -3.1,5.39l-6.23 3.63c-1.94,1.13 -4.33,1.13 -6.27,0l-6.23 -3.63c-1.92,-1.12 -3.1,-3.17 -3.1,-5.39l0 0z"/>
 </g>
</svg>
