<?xml version="1.0" encoding="UTF-8"?>
<!DOCTYPE svg PUBLIC "-//W3C//DTD SVG 1.1//EN" "http://www.w3.org/Graphics/SVG/1.1/DTD/svg11.dtd">
<!-- Creator: CorelDRAW 2020 (64 Bit) -->
<svg xmlns="http://www.w3.org/2000/svg" xml:space="preserve" width="1146.73mm" height="671.275mm" version="1.1" style="shape-rendering:geometricPrecision; text-rendering:geometricPrecision; image-rendering:optimizeQuality; fill-rule:evenodd; clip-rule:evenodd"
viewBox="0 0 12307.39 7204.55"
 xmlns:xlink="http://www.w3.org/1999/xlink"
 xmlns:xodm="http://www.corel.com/coreldraw/odm/2003">
 <defs>
  <style type="text/css">
   <![CDATA[
    .str16 {stroke:#6842C2;stroke-width:5.68;stroke-miterlimit:22.9256;stroke-opacity:0.239216}
    .str0 {stroke:#04D361;stroke-width:2.21;stroke-miterlimit:22.9256}
    .str1 {stroke:#04D361;stroke-width:2.84;stroke-miterlimit:22.9256}
    .str24 {stroke:#246278;stroke-width:2.84;stroke-miterlimit:22.9256}
    .str15 {stroke:#2E4B56;stroke-width:2.84;stroke-miterlimit:22.9256}
    .str27 {stroke:#39615D;stroke-width:2.84;stroke-miterlimit:22.9256}
    .str14 {stroke:#53D2C1;stroke-width:2.84;stroke-miterlimit:22.9256}
    .str2 {stroke:#779D98;stroke-width:2.84;stroke-miterlimit:22.9256}
    .str9 {stroke:#C0E6E2;stroke-width:2.84;stroke-miterlimit:22.9256}
    .str19 {stroke:#C9C9D4;stroke-width:2.84;stroke-miterlimit:22.9256}
    .str13 {stroke:#E3624C;stroke-width:2.84;stroke-miterlimit:22.9256}
    .str21 {stroke:#246278;stroke-width:2.15;stroke-miterlimit:22.9256}
    .str6 {stroke:#C0E6E2;stroke-width:2.15;stroke-miterlimit:22.9256}
    .str7 {stroke:white;stroke-width:2.21;stroke-linecap:round;stroke-linejoin:round;stroke-miterlimit:22.9256}
    .str8 {stroke:white;stroke-width:2.77;stroke-linecap:round;stroke-linejoin:round;stroke-miterlimit:22.9256}
    .str3 {stroke:white;stroke-width:2;stroke-linecap:round;stroke-linejoin:round;stroke-miterlimit:22.9256}
    .str10 {stroke:white;stroke-width:2.55;stroke-linecap:round;stroke-linejoin:round;stroke-miterlimit:22.9256}
    .str25 {stroke:#43302D;stroke-width:2.84;stroke-linecap:round;stroke-linejoin:round;stroke-miterlimit:22.9256}
    .str22 {stroke:#561E15;stroke-width:2.84;stroke-linecap:round;stroke-linejoin:round;stroke-miterlimit:22.9256}
    .str20 {stroke:#C9C9D4;stroke-width:2.84;stroke-linecap:round;stroke-linejoin:round;stroke-miterlimit:22.9256}
    .str5 {stroke:white;stroke-width:2.32;stroke-linecap:round;stroke-linejoin:round;stroke-miterlimit:22.9256}
    .str17 {stroke:#561E15;stroke-width:2.92;stroke-linecap:round;stroke-linejoin:round;stroke-miterlimit:22.9256}
    .str12 {stroke:#53D2C1;stroke-width:5.68;stroke-linecap:round;stroke-linejoin:round;stroke-miterlimit:22.9256}
    .str11 {stroke:#6DD1A4;stroke-width:5.68;stroke-linecap:round;stroke-linejoin:round;stroke-miterlimit:22.9256}
    .str30 {stroke:#ECF6F5;stroke-width:5.68;stroke-linecap:round;stroke-linejoin:round;stroke-miterlimit:22.9256}
    .str28 {stroke:white;stroke-width:5.68;stroke-linecap:round;stroke-linejoin:round;stroke-miterlimit:22.9256}
    .str4 {stroke:white;stroke-width:3.23;stroke-linecap:round;stroke-linejoin:round;stroke-miterlimit:22.9256}
    .str26 {stroke:#765441;stroke-width:2.13;stroke-linecap:round;stroke-linejoin:round;stroke-miterlimit:22.9256}
    .str23 {stroke:#DA9F74;stroke-width:2.13;stroke-linecap:round;stroke-linejoin:round;stroke-miterlimit:22.9256}
    .str29 {stroke:white;stroke-width:6.29;stroke-linecap:round;stroke-linejoin:round;stroke-miterlimit:22.9256}
    .str18 {stroke:#D66D78;stroke-width:2.19;stroke-linecap:round;stroke-linejoin:round;stroke-miterlimit:22.9256}
    .fil0 {fill:none}
    .fil2 {fill:none;fill-rule:nonzero}
    .fil21 {fill:none;fill-rule:nonzero}
    .fil27 {fill:#194248;fill-rule:nonzero}
    .fil32 {fill:#246278;fill-rule:nonzero}
    .fil7 {fill:#2E4B56;fill-rule:nonzero}
    .fil36 {fill:#39615D;fill-rule:nonzero}
    .fil37 {fill:#43302D;fill-rule:nonzero}
    .fil6 {fill:#53D2C1;fill-rule:nonzero}
    .fil33 {fill:#60423D;fill-rule:nonzero}
    .fil1 {fill:#6DD1A4;fill-rule:nonzero}
    .fil38 {fill:#765441;fill-rule:nonzero}
    .fil3 {fill:#779D98;fill-rule:nonzero}
    .fil24 {fill:#AD1E18;fill-rule:nonzero}
    .fil34 {fill:#BC8567;fill-rule:nonzero}
    .fil4 {fill:#C0E6E2;fill-rule:nonzero}
    .fil35 {fill:#C9C9D4;fill-rule:nonzero}
    .fil28 {fill:#D38D00;fill-rule:nonzero}
    .fil26 {fill:#D8D8E3;fill-rule:nonzero}
    .fil31 {fill:#DA9F74;fill-rule:nonzero}
    .fil5 {fill:#E3624C;fill-rule:nonzero}
    .fil9 {fill:#E6E6F0;fill-rule:nonzero}
    .fil11 {fill:#F2F2FA;fill-rule:nonzero}
    .fil29 {fill:#FCDDC6;fill-rule:nonzero}
    .fil25 {fill:#FEC9CF;fill-rule:nonzero}
    .fil30 {fill:#FFDFC8;fill-rule:nonzero}
    .fil8 {fill:white;fill-rule:nonzero}
    .fil12 {fill:#53D2C1;fill-rule:nonzero;fill-opacity:0.000000}
    .fil10 {fill:#E6E6F0;fill-rule:nonzero;fill-opacity:0.239216}
    .fil19 {fill:#0E1235;fill-rule:nonzero}
    .fil22 {fill:#2E4B56;fill-rule:nonzero}
    .fil14 {fill:#53D2C1;fill-rule:nonzero}
    .fil18 {fill:#8F4A3F;fill-rule:nonzero}
    .fil20 {fill:#9A5449;fill-rule:nonzero}
    .fil15 {fill:#F2F2FA;fill-rule:nonzero}
    .fil16 {fill:#FBD5D9;fill-rule:nonzero}
    .fil17 {fill:#FFA4AD;fill-rule:nonzero}
    .fil13 {fill:#FFCAD0;fill-rule:nonzero}
    .fil23 {fill:white;fill-rule:nonzero}
   ]]>
  </style>
   <clipPath id="id0" style="clip-rule:nonzero">
    <path d="M7335.74 822.16l0 3225.69c0,97.3 -65.16,176.07 -145.7,176.07l-4019.64 0c-36.15,0 -69.3,-15.84 -94.78,-42.32 -31.09,-32.37 -50.95,-80.11 -50.95,-133.75l0 -3225.69c0,-97.31 65.37,-176.06 145.72,-176.06l4019.64 0c36.15,0 69.49,15.84 94.78,42.31 31.27,32.37 50.92,80.12 50.92,133.75z"/>
   </clipPath>
   <clipPath id="id1" style="clip-rule:nonzero">
    <path d="M7335.74 822.16l0 3225.69c0,97.3 -65.16,176.07 -145.7,176.07l-4019.64 0c-36.15,0 -69.3,-15.84 -94.78,-42.32 -31.09,-32.37 -50.95,-80.11 -50.95,-133.75l0 -3225.69c0,-97.31 65.37,-176.06 145.72,-176.06l4019.64 0c36.15,0 69.49,15.84 94.78,42.31 31.27,32.37 50.92,80.12 50.92,133.75z"/>
   </clipPath>
 </defs>
 <g id="Camada_x0020_1">
  <metadata id="CorelCorpID_0Corel-Layer"/>
  <path class="fil0 str0" d="M6282.36 7167.67c24.96,-130.95 102.45,-251.01 211.26,-327.65"/>
  <path class="fil0 str0" d="M6278.98 7204.5c4.7,-109.34 46.89,-372.57 146.71,-537.35"/>
  <path class="fil0 str0" d="M6280.49 7190.99c17.26,-195.03 15.76,-410.54 -14.65,-604.06"/>
  <g>
   <path class="fil1" d="M6509.52 6789.09l0 0c-0.96,1.71 -1.93,3.41 -2.9,5.15 -13.55,23.97 -27.12,47.9 -43.82,70.53 4.38,-1.45 9.01,-3.23 13.83,-5.16 2.43,-0.96 4.94,-1.99 7.49,-3.02 5.29,-2.16 10.74,-4.38 15.9,-6.32 7.68,-2.86 15.64,-5.43 23.07,-6.53l0 0c34.44,-5.05 69.61,-3.68 103.39,0.72l0 0c26.36,3.44 52.66,8.66 78.52,13.8 8.39,1.67 16.77,3.34 25.06,4.92 34.16,6.52 67.76,11.93 101.63,12.39l0 0c19.22,0.27 39.63,-2.25 56.87,-8.87 17.19,-6.63 30.43,-17.02 37.14,-32.18l0.02 -0.02c11.09,-24.81 -0.33,-57.52 -23.46,-76.77l-0.02 -0.02c-22.9,-19.19 -54.31,-26.83 -86.71,-29.96l0 0c-11.79,-1.15 -23.58,-1.75 -35.66,-2.36 -4.46,-0.23 -8.95,-0.46 -13.5,-0.7 -16.67,-0.95 -33.74,-2.29 -50.66,-5.51l-0.02 -0.02c-10.1,-1.95 -20.09,-4.55 -29.78,-7.14 -1.54,-0.41 -3.06,-0.82 -4.56,-1.24 -8.17,-2.2 -16.11,-4.34 -24.05,-6.15 -18.79,-4.3 -36.4,-6.48 -53.64,-3.13l-94.14 87.59zm0 0l0.02 -0.04 -0.02 0.04zm0 0l0.02 -0.04 -0.02 0.04zm0.02 -0.04c23.07,-41.12 52.78,-79.51 94.11,-87.55l-94.11 87.55z"/>
   <path id="1" class="fil2 str1" d="M6509.52 6789.09l0 0c-0.96,1.71 -1.93,3.41 -2.9,5.15 -13.55,23.97 -27.12,47.9 -43.82,70.53 4.38,-1.45 9.01,-3.23 13.83,-5.16 2.43,-0.96 4.94,-1.99 7.49,-3.02 5.29,-2.16 10.74,-4.38 15.9,-6.32 7.68,-2.86 15.64,-5.43 23.07,-6.53l0 0c34.44,-5.05 69.61,-3.68 103.39,0.72l0 0c26.36,3.44 52.66,8.66 78.52,13.8 8.39,1.67 16.77,3.34 25.06,4.92 34.16,6.52 67.76,11.93 101.63,12.39l0 0c19.22,0.27 39.63,-2.25 56.87,-8.87 17.19,-6.63 30.43,-17.02 37.14,-32.18l0.02 -0.02c11.09,-24.81 -0.33,-57.52 -23.46,-76.77l-0.02 -0.02c-22.9,-19.19 -54.31,-26.83 -86.71,-29.96l0 0c-11.79,-1.15 -23.58,-1.75 -35.66,-2.36 -4.46,-0.23 -8.95,-0.46 -13.5,-0.7 -16.67,-0.95 -33.74,-2.29 -50.66,-5.51l-0.02 -0.02c-10.1,-1.95 -20.09,-4.55 -29.78,-7.14 -1.54,-0.41 -3.06,-0.82 -4.56,-1.24 -8.17,-2.2 -16.11,-4.34 -24.05,-6.15 -18.79,-4.3 -36.4,-6.48 -53.64,-3.13l-94.14 87.59zm0 0l0.02 -0.04m-0.02 0.04l0.02 -0.04m0 0c23.07,-41.12 52.78,-79.51 94.11,-87.55l-94.11 87.55z"/>
  </g>
  <path class="fil1 str1" d="M6413.1 6690.25c12.86,-10.76 25.04,-24.1 37.66,-38.36 1.65,-1.85 3.27,-3.71 4.91,-5.58 15.17,-17.2 31.09,-35.29 48.79,-49.38 48.5,-38.77 107.24,-68.71 170.53,-73.6l-261.89 166.91zm0 0c0.64,-3.71 1.6,-8.01 2.92,-12.89 4.5,-16.58 12.49,-37.73 21.63,-59.59 13.84,-33.09 29.83,-66.65 39.56,-87.08 3.13,-6.56 5.62,-11.77 7.19,-15.19 32.08,-69.65 81.59,-135.04 151.59,-154.65l0 0c29.71,-8.31 60.64,-7.99 92.96,-5.1 11.03,0.99 22.4,2.29 33.95,3.6 21.53,2.49 43.64,5.02 65.15,5.64l0.04 0c10.35,0.25 20.89,0.08 31.18,-0.08 5.02,-0.08 9.98,-0.16 14.82,-0.19 15.06,-0.1 29.63,0.27 43.92,2.41 28.54,4.3 55.71,17.08 69.03,39.61l0.02 0.02c10.29,17.28 10.84,38.42 3.79,58.76 -7.08,20.39 -21.54,39.04 -39.67,50.52 -37.24,23.6 -85.09,25.29 -132.02,20.08 -13.6,-1.5 -26.69,-3.44 -39.96,-5.41 -10.09,-1.48 -20.29,-2.98 -30.9,-4.34 -23.93,-3.04 -48.42,-5.02 -73.27,-3.06l-261.92 166.94zm-0.45 12.08c0,0 0,-0.02 0,-0.05l0 0.05z"/>
  <path class="fil1 str1" d="M6312.73 6399.38l0 0.02c6.03,36.89 -0.11,74.79 -11.67,111.33 -0.82,2.61 -1.8,5.91 -2.96,9.67 -3.45,11.52 -8.3,27.57 -14.28,42.76 -3.95,10.04 -8.17,19.09 -12.47,25.72 -2.14,3.31 -4.11,5.7 -5.83,7.26 -1.75,1.59 -2.74,1.87 -2.92,1.91l-0.02 0c-2.14,0.41 -6.49,-0.2 -13.41,-3.66 -6.56,-3.27 -13.91,-8.31 -21.36,-14.19 -14.85,-11.74 -28.81,-25.83 -35.57,-32.88 -20.68,-21.79 -37.14,-47.45 -47.31,-75.5l-0.02 -0.04c-11.89,-32.39 -16.01,-67 -20.12,-103.07 -0.08,-0.79 -0.17,-1.59 -0.27,-2.37 -3.97,-34.92 -8.09,-71.17 -20.08,-105.59l0 0c-13.64,-38.99 -36.87,-73.85 -59.14,-107.24 -5.85,-8.76 -11.63,-17.43 -17.14,-26.05 -27.06,-42.22 -49.96,-87.39 -49.61,-134.73 0.35,-47.45 30.49,-95.18 73.7,-102.86l0.02 0c28.49,-5.12 58.8,6.85 83.89,25.88l0.02 0c35.45,26.78 61.34,65.91 72.41,109.12 6.65,26.15 7.94,53.38 9.22,81.84l0.05 1.15c1.25,27.72 2.53,56.62 9.48,84.73 8.62,35.25 25.73,67.6 42.12,98.59 1.24,2.36 2.5,4.71 3.72,7.05 17.72,33.62 33.85,65.92 39.55,101.15z"/>
  <path class="fil2 str0" d="M6278.59 7172.57c-12.75,-172.28 -57.04,-366.93 -153.27,-510.28"/>
  <path class="fil1 str1" d="M6102.11 6532.69l0 0.05c13.79,38.43 22.28,78.7 29.38,119.28l0.02 0.04c0.37,2.14 1.03,4.88 1.66,7.59 0.25,1.05 0.47,2.08 0.7,3.06 0.9,3.91 1.71,7.89 2.16,11.67 0.43,3.86 0.41,6.93 -0.04,9.15 -0.41,2.12 -1.05,2.65 -1.24,2.78l0 0c-0.09,0.08 -0.85,0.62 -3.48,0.23 -2.66,-0.39 -6.07,-1.6 -10,-3.64 -7.8,-3.99 -15.44,-9.98 -19.3,-13.42 -6.91,-6.34 -13.04,-13.69 -19.2,-21.65 -2.15,-2.82 -4.42,-5.82 -6.7,-8.89 -3.97,-5.26 -8.06,-10.76 -12.2,-15.84l0 -0.02c-55.81,-68.61 -143.93,-101.59 -229.05,-113.79 -42.59,-6.11 -85.44,-7.71 -127.94,-8.39 -11.24,-0.17 -22.43,-0.29 -33.58,-0.41 -31.25,-0.33 -62.25,-0.64 -93.24,-2.37l-0.05 0c-19.29,-0.94 -36.65,-3.04 -49.51,-12.18 -16.79,-12.02 -23.79,-36.6 -18.64,-59.03 5.12,-22.18 20.41,-41.81 39.26,-58l0 0c41.62,-35.79 96.91,-53.83 152.7,-57.47 55.8,-3.66 112.16,6.38 167.2,21.28l0 0c53.04,14.34 104.75,33.6 145.41,67.81 40.18,33.97 67.67,81.4 85.68,132.16z"/>
  <path class="fil2 str0" d="M6275.03 7190.99c-7.49,-150.31 -75.04,-296.88 -184.23,-400.21"/>
  <g>
   <path class="fil1" d="M6033.59 6711.93c-37.76,-20.08 -80.51,-33.17 -122.7,-45l122.7 45zm0 0c2.86,1.52 5.44,2.9 8.01,4.45l-0.02 0 0.25 0.14c16.42,9.29 27.37,25.43 39.42,43.83 1.38,2.12 3.51,6.42 6.4,12.63 0.89,1.87 1.81,3.91 2.78,6.01 2.04,4.45 4.24,9.26 6.48,13.91 0.68,1.41 1.38,2.85 2.08,4.28 -50.78,-13.91 -106.67,-13.4 -155.56,-12.93l-0.58 0c0,0 0,0 0,0l90.74 -72.32zm0 0l-90.74 72.32 90.74 -72.32zm-90.74 72.32c-66.87,0.58 -133.76,13.01 -196.29,37.14l-0.04 0.02c-8.3,3.23 -16.38,6.58 -24.37,9.89 -30.42,12.64 -59.1,24.53 -90.09,26.24 -10.27,0.49 -21.21,-0.99 -30.03,-4.71 -8.73,-3.7 -14.53,-9.2 -16.81,-16.44 -3.62,-11.85 2.64,-25.87 13.23,-40l0 0 344.4 -12.14zm0 0l-344.4 12.14 344.4 -12.14zm-344.4 12.14l0.02 -0.04 -0.02 0.04zm0 0l0.02 -0.04 -0.02 0.04zm0.02 -0.04c20.94,-28.21 47.98,-51.34 75.9,-75.14l-75.9 75.14zm0 0l75.9 -75.14 -75.9 75.14zm75.9 -75.14c36.4,-30.95 72.47,-60.71 115.74,-69.12l-115.74 69.12zm438.4 80.16c-4.42,-8.01 -8.93,-17.82 -12.94,-26.57 -3.99,-8.66 -7.49,-16.3 -9.98,-20.1 -11.81,-18.03 -24.01,-36.44 -42.97,-47.16 -2.82,-1.69 -5.61,-3.19 -8.43,-4.7l74.31 98.52zm-322.65 -149.28c38.87,-7.55 79.46,3.25 120.78,14.84l-120.78 -14.84z"/>
   <path id="1" class="fil2 str1" d="M6033.59 6711.93c-37.76,-20.08 -80.51,-33.17 -122.7,-45l122.7 45zm0 0c2.86,1.52 5.44,2.9 8.01,4.45l-0.02 0 0.25 0.14c16.42,9.29 27.37,25.43 39.42,43.83 1.38,2.12 3.51,6.42 6.4,12.63 0.89,1.87 1.81,3.91 2.78,6.01 2.04,4.45 4.24,9.26 6.48,13.91 0.68,1.41 1.38,2.85 2.08,4.28 -50.78,-13.91 -106.67,-13.4 -155.56,-12.93l-0.58 0c0,0 0,0 0,0m90.74 -72.32l-90.74 72.32m0 0c-66.87,0.58 -133.76,13.01 -196.29,37.14l-0.04 0.02c-8.3,3.23 -16.38,6.58 -24.37,9.89 -30.42,12.64 -59.1,24.53 -90.09,26.24 -10.27,0.49 -21.21,-0.99 -30.03,-4.71 -8.73,-3.7 -14.53,-9.2 -16.81,-16.44 -3.62,-11.85 2.64,-25.87 13.23,-40l0 0m344.4 -12.14l-344.4 12.14m0 0l0.02 -0.04m-0.02 0.04l0.02 -0.04m0 0c20.94,-28.21 47.98,-51.34 75.9,-75.14m-75.9 75.14l75.9 -75.14m0 0c36.4,-30.95 72.47,-60.71 115.74,-69.12l-115.74 69.12zm438.4 80.16c-4.42,-8.01 -8.93,-17.82 -12.94,-26.57 -3.99,-8.66 -7.49,-16.3 -9.98,-20.1 -11.81,-18.03 -24.01,-36.44 -42.97,-47.16 -2.82,-1.69 -5.61,-3.19 -8.43,-4.7l74.31 98.52zm-322.65 -149.28c38.87,-7.55 79.46,3.25 120.78,14.84l-120.78 -14.84z"/>
  </g>
  <g>
   <path class="fil3" d="M10846.75 6580.45l0 0.02c-22.04,21.83 -49.22,34.44 -76.09,44.98 -6.56,2.59 -13.09,5.04 -19.53,7.45 -20.44,7.67 -40.08,15.06 -58.33,25.47 -51.52,29.47 -88.73,82.59 -111.09,139.67 -0.27,0.68 -0.54,1.36 -0.8,2.04 -8.38,21.53 -20.45,52.45 -27.14,82.76 -3.44,15.63 -5.35,30.66 -4.74,43.82 0.62,13.21 3.73,23.7 9.49,31.22l0.04 0.04c13.05,17.18 36.03,20.76 64.53,16.07 28.04,-4.65 57.51,-16.75 78.83,-25.73l0.02 0c7.79,-3.27 15.69,-6.7 23.7,-10.2 41.31,-17.99 85.16,-37.08 130.84,-39.06 49.45,-2.18 95.7,15.66 138.07,32.68l1.15 0.45c42.59,17.1 84.08,33.74 128.08,33.93 44.12,0.19 91.21,-20.84 111.26,-59.8 8.42,-16.48 11.84,-34.98 15.54,-55.02 0.68,-3.64 1.36,-7.33 2.08,-11.07 4.55,-23.5 10.72,-48.6 28.75,-68.56l0.02 0c18.48,-20.45 42.76,-28.69 67.31,-32.12 17.65,-2.47 36.54,-2.55 54.11,-2.64 6.42,-0.02 12.65,-0.06 18.6,-0.2l0.02 0c49.36,-1.1 100.1,-14.41 138.27,-46.44l0.02 -0.02c38.36,-31.99 60.81,-85.04 48.67,-129.16l-0.02 0c-10.04,-36.52 -40.56,-62.57 -72.9,-88.66l0 -0.02c-44.59,-36.07 -91.25,-70.5 -144.98,-66.87 -19.13,1.38 -38,7.53 -58.31,14.15l-1.5 0.5c-20.41,6.66 -42.34,13.68 -65.12,14.5 -28.74,1.01 -54.73,-7.78 -78.62,-19.96 -18.1,-9.26 -35.66,-20.83 -52.35,-31.84 -5.06,-3.33 -10.04,-6.63 -14.94,-9.79 -42.98,-27.69 -93.29,-47.86 -136.66,-26.99l-136.26 234.38zm0 0c31.01,-30.88 44.93,-73.74 57.6,-112.73l-57.6 112.73zm0 0l57.6 -112.73 -57.6 112.73zm57.6 -112.73c1.79,-5.5 3.54,-10.93 5.33,-16.21l-5.33 16.21zm0 0l5.33 -16.21 -5.33 16.21zm5.33 -16.21c14.82,-44.13 35.87,-87.35 73.31,-105.43l-73.31 105.43z"/>
   <path id="1" class="fil2 str2" d="M10846.75 6580.45l0 0.02c-22.04,21.83 -49.22,34.44 -76.09,44.98 -6.56,2.59 -13.09,5.04 -19.53,7.45 -20.44,7.67 -40.08,15.06 -58.33,25.47 -51.52,29.47 -88.73,82.59 -111.09,139.67 -0.27,0.68 -0.54,1.36 -0.8,2.04 -8.38,21.53 -20.45,52.45 -27.14,82.76 -3.44,15.63 -5.35,30.66 -4.74,43.82 0.62,13.21 3.73,23.7 9.49,31.22l0.04 0.04c13.05,17.18 36.03,20.76 64.53,16.07 28.04,-4.65 57.51,-16.75 78.83,-25.73l0.02 0c7.79,-3.27 15.69,-6.7 23.7,-10.2 41.31,-17.99 85.16,-37.08 130.84,-39.06 49.45,-2.18 95.7,15.66 138.07,32.68l1.15 0.45c42.59,17.1 84.08,33.74 128.08,33.93 44.12,0.19 91.21,-20.84 111.26,-59.8 8.42,-16.48 11.84,-34.98 15.54,-55.02 0.68,-3.64 1.36,-7.33 2.08,-11.07 4.55,-23.5 10.72,-48.6 28.75,-68.56l0.02 0c18.48,-20.45 42.76,-28.69 67.31,-32.12 17.65,-2.47 36.54,-2.55 54.11,-2.64 6.42,-0.02 12.65,-0.06 18.6,-0.2l0.02 0c49.36,-1.1 100.1,-14.41 138.27,-46.44l0.02 -0.02c38.36,-31.99 60.81,-85.04 48.67,-129.16l-0.02 0c-10.04,-36.52 -40.56,-62.57 -72.9,-88.66l0 -0.02c-44.59,-36.07 -91.25,-70.5 -144.98,-66.87 -19.13,1.38 -38,7.53 -58.31,14.15l-1.5 0.5c-20.41,6.66 -42.34,13.68 -65.12,14.5 -28.74,1.01 -54.73,-7.78 -78.62,-19.96 -18.1,-9.26 -35.66,-20.83 -52.35,-31.84 -5.06,-3.33 -10.04,-6.63 -14.94,-9.79 -42.98,-27.69 -93.29,-47.86 -136.66,-26.99l-136.26 234.38zm0 0c31.01,-30.88 44.93,-73.74 57.6,-112.73m-57.6 112.73l57.6 -112.73m0 0c1.79,-5.5 3.54,-10.93 5.33,-16.21m-5.33 16.21l5.33 -16.21m0 0c14.82,-44.13 35.87,-87.35 73.31,-105.43l-73.31 105.43z"/>
  </g>
  <path class="fil2 str3" d="M10559.37 6959.07c249.73,-214.75 541.11,-356.97 855.57,-417.47"/>
  <path class="fil3" d="M10806.28 6628.78c5.82,-70.84 -7.49,-144.66 15.76,-211.75 41.47,-119.51 185.19,-181.87 221.22,-303.06 43.15,-144.86 -88.56,-292.72 -65.66,-442.08 9.56,-62.94 45.78,-118.38 68.29,-177.93 22.51,-59.56 28.34,-134.15 -15.39,-180.55 -45.78,-48.47 -128.89,-42.84 -183.31,-4.14 -54.41,38.71 -85.75,101.46 -111.26,163.27 -25.34,61.81 -47.66,126.44 -90.62,177.74 -78.25,93.38 -218.97,134.34 -261.74,248.38 -43.52,116.11 38.85,238.99 53.47,362.06 11.08,93.19 -17.26,186.01 -42.59,276.56 -25.14,90.56 -47.47,186.38 -24.38,277.31 30.76,121.19 139.77,198.42 244.28,120.62 103.38,-76.46 181.25,-173.23 191.94,-306.42z"/>
  <path class="fil2 str4" d="M10548.11 6964.89c-41.46,-432.51 53.48,-901.64 275.25,-1275.17"/>
  <path class="fil3" d="M10271.94 6801.81c-45.6,-64.45 -71.69,-145.04 -133.6,-194.07 -70.93,-56.38 -169.24,-56.93 -259.3,-64.26 -90.25,-7.33 -191.94,-32.88 -233.77,-113.29 -22.89,-44.16 -22.89,-96.56 -38.85,-143.54 -17.63,-51.67 -53.66,-94.51 -78.99,-142.81 -25.14,-48.27 -38.46,-109.71 -9.2,-155.74 29.65,-46.61 94.57,-60.32 147.67,-45.28 53.08,15.02 96.63,52.42 136.4,90.74 39.78,38.33 78.62,79.3 127.59,104.47 81.24,41.52 177.68,33.82 268.85,29.87 91.19,-3.76 190.63,0 261.19,58.26 57.96,47.9 84.43,123.25 108.07,194.83 34.13,102.39 69.04,204.41 102.24,307.18 20.45,63.13 59.48,159.88 -6.17,209.49 -115.78,87.36 -325.35,-41.71 -392.14,-135.85z"/>
  <path class="fil2 str5" d="M10627.47 6941.42c-144.84,-336.69 -451.42,-623.4 -818.42,-749.83"/>
  <path class="fil4 str6" d="M2282.47 6925.95c41.47,-61.82 65.47,-141.09 121.19,-186.38 64,-51.67 151.97,-44.9 233.02,-45.84 80.89,-0.75 172.25,-18.98 210.52,-97.14 21.03,-42.82 21.22,-95.8 36.03,-142.22 16.13,-50.91 48.78,-91.5 71.87,-138.46 22.88,-46.98 35.27,-108.04 9.57,-156.71 -26.28,-49.22 -84.26,-67.81 -131.92,-56.54 -47.65,11.28 -87.05,45.84 -122.87,81.55 -35.85,35.7 -70.93,74.21 -115.21,96 -73.16,36.08 -159.48,21.03 -241.29,10.34 -81.79,-10.51 -170.93,-13.91 -234.53,39.65 -52.35,44.13 -76.55,118.36 -98.5,188.81 -31.33,100.9 -63.42,201.42 -94,302.7 -18.77,62.37 -54.6,157.06 3.93,212.1 102.63,97.33 291.57,-17.65 352.18,-107.83z"/>
  <path class="fil2 str7" d="M1962.75 7040.92c132.46,-329.53 409.4,-596.52 739.25,-697.4"/>
  <path class="fil4 str6" d="M1781.13 6752.92c-4.5,-65.21 6,-133.03 -12.58,-194.84 -33.21,-109.92 -148.41,-167.22 -177.3,-278.64 -34.52,-133.21 70.93,-269.23 52.72,-406.74 -7.69,-57.88 -36.77,-108.79 -54.78,-163.66 -18.02,-54.86 -22.71,-123.44 12.38,-166.07 36.78,-44.73 103.2,-39.47 146.91,-3.76 43.53,35.7 68.67,93.38 89.12,150.12 20.26,56.73 38.28,116.29 72.61,163.45 62.67,85.87 175.42,123.44 209.58,228.46 34.9,106.92 -31.15,219.82 -42.77,333.11 -8.83,85.86 13.87,171.17 34.13,254.4 20.27,83.23 38.08,171.33 19.53,255.14 -24.59,111.42 -112.02,182.43 -195.7,111.03 -82.74,-70.45 -145.22,-159.51 -153.85,-282z"/>
  <path class="fil2 str8" d="M1987.89 7061.97c33.21,-397.74 -42.97,-829.3 -220.47,-1172.95"/>
  <g>
   <path class="fil4" d="M715.42 6434.83c-15.2,65.19 16.32,143.91 66.04,192.76 49.73,49.03 114.27,71.77 175.62,77.22l160.61 52.98 8.11 -6.34c-0.01,0 -0.01,0 -0.01,0 -21.83,-27.94 -50.48,-40.82 -80.13,-47.38 -21.37,-4.74 -44.2,-6.34 -65.48,-7.82 -7.63,-0.54 -15.06,-1.05 -22.16,-1.69l-0.02 0c-59.57,-5.29 -121.67,-27.33 -169.3,-74.3l-0.02 -0.02c-47.9,-47.06 -77.4,-122.28 -63.23,-183.08l-10.02 -2.33zm0 0l10.02 2.34c0,0 0,0 0,-0.02l-10.02 -2.33zm0 0l10.02 2.33c0,0 0,0 0,0l-10.02 -2.33zm0 0c12.57,-53.56 52.16,-88.87 89.87,-121.01 52.35,-44.72 111.45,-91.5 181.81,-81.55 24.78,3.48 49.07,13.85 73.33,24.22 25.7,10.97 51.37,21.94 77.53,24.63l-422.53 153.71zm10.02 2.33c11.7,-49.82 48.57,-83.15 86.53,-115.49l0.01 -0.02c52.98,-45.25 108.6,-88.38 173.69,-79.18l0.02 0.02c23.4,3.27 46.58,13.17 71.31,23.72l1.57 0.68c24.73,10.55 51.1,21.67 78.33,24.48l-411.45 145.78zm411.45 -145.78l1.07 -10.25 -1.07 10.25zm0 0c34.41,3.56 65.4,-6.25 93.85,-20.84 21.55,-11.05 42.35,-25.25 62.2,-38.81 6.05,-4.11 12.02,-8.19 17.89,-12.1l0.02 -0.02c51.03,-34.13 111.55,-57.8 165.39,-25.82l-339.35 97.59zm0 0c0,0 0,0 0.01,0l1.06 -10.25 -1.07 10.25zm1.07 -10.25c55.88,5.81 103.18,-26.48 148.8,-57.63 6.14,-4.19 12.26,-8.37 18.37,-12.43 51.41,-34.38 116.89,-61.44 176.37,-26.13l-343.54 96.19zm338.28 -87.34c-0.01,0 -0.02,0 -0.02,0l5.27 -8.85 -5.26 8.85zm0 0c23.24,13.89 41.79,36.16 56.95,62.98 15.14,26.81 26.57,57.57 35.85,87.71l0.01 0.02c2.33,7.49 4.64,15.12 6.96,22.82 16.2,53.7 33.56,111.23 70.89,154.28l-170.66 -327.82zm0 0c0,0 0,0 0,0l5.26 -8.85 -5.26 8.85zm5.26 -8.85c50.66,30.25 78.62,95.64 97.37,156.52l68.03 180.14 -165.41 -336.67zm165.41 336.67c26.5,30.7 59.05,49.61 91.71,65.93 7.98,3.99 15.92,7.79 23.79,11.58 24.78,11.89 48.83,23.45 71.21,38.99l0.02 0.02c63.81,44.16 110.45,119.73 138.95,199.4 0.37,1.05 0.75,2.12 1.14,3.21 10.54,29.59 25.8,72.39 34.62,114.12 4.56,21.63 7.31,42.53 6.88,60.86 -0.43,18.46 -4.06,33.25 -11.21,43.6l-0.02 0.04c-15.63,22.8 -43.5,25.8 -78.14,17.23 -34.16,-8.46 -70.24,-27.18 -96.17,-40.97l-0.01 -0.02c-9.3,-4.94 -18.73,-10.08 -28.25,-15.29 -20.58,-11.25 -41.56,-22.73 -62.53,-32.66 -30.88,-14.63 -62.87,-26.46 -96,-30.22l-0.01 0c-59.33,-6.71 -114.68,13.7 -165.33,33.53l-1.5 0.58c-50.77,19.9 -100.31,39.3 -153.58,35.93 -53.35,-3.38 -112.11,-35.41 -138.23,-91.75l462.65 -414.12zm0 0l7.77 -6.75 -7.78 6.73c0.01,0.02 0.01,0.02 0.02,0.02zm177.95 523.09c-9.56,-5.06 -19.12,-10.31 -28.71,-15.54 -50.45,-27.62 -101.43,-55.5 -154.41,-61.5 -56.48,-6.38 -109.58,12.96 -160.42,32.88l-2.45 0.96c-50.08,19.61 -101.46,39.75 -157.04,36.23 -56.48,-3.55 -118.95,-37.38 -146.9,-97.69l649.93 104.65zm0 0c51.6,27.43 148.6,77.4 187.62,20.47l-187.62 -20.47z"/>
   <path id="1" class="fil2 str9" d="M715.42 6434.83c-15.2,65.19 16.32,143.91 66.04,192.76 49.73,49.03 114.27,71.77 175.62,77.22l160.61 52.98 8.11 -6.34c-0.01,0 -0.01,0 -0.01,0 -21.83,-27.94 -50.48,-40.82 -80.13,-47.38 -21.37,-4.74 -44.2,-6.34 -65.48,-7.82 -7.63,-0.54 -15.06,-1.05 -22.16,-1.69l-0.02 0c-59.57,-5.29 -121.67,-27.33 -169.3,-74.3l-0.02 -0.02c-47.9,-47.06 -77.4,-122.28 -63.23,-183.08m-10.02 -2.33l10.02 2.34c0,0 0,0 0,-0.02m-10.02 -2.33l10.02 2.33c0,0 0,0 0,0m-10.02 -2.33c12.57,-53.56 52.16,-88.87 89.87,-121.01 52.35,-44.72 111.45,-91.5 181.81,-81.55 24.78,3.48 49.07,13.85 73.33,24.22 25.7,10.97 51.37,21.94 77.53,24.63m-412.51 156.03c11.7,-49.82 48.57,-83.15 86.53,-115.49l0.01 -0.02c52.98,-45.25 108.6,-88.38 173.69,-79.18l0.02 0.02c23.4,3.27 46.58,13.17 71.31,23.72l1.57 0.68c24.73,10.55 51.1,21.67 78.33,24.48m0 0l1.07 -10.25m-1.07 10.25c34.41,3.56 65.4,-6.25 93.85,-20.84 21.55,-11.05 42.35,-25.25 62.2,-38.81 6.05,-4.11 12.02,-8.19 17.89,-12.1l0.02 -0.02c51.03,-34.13 111.55,-57.8 165.39,-25.82m-339.35 97.59c0,0 0,0 0.01,0l1.06 -10.25m0 0c55.88,5.81 103.18,-26.48 148.8,-57.63 6.14,-4.19 12.26,-8.37 18.37,-12.43 51.41,-34.38 116.89,-61.44 176.37,-26.13m-5.26 8.85c-0.01,0 -0.02,0 -0.02,0l5.27 -8.85m-5.26 8.85c23.24,13.89 41.79,36.16 56.95,62.98 15.14,26.81 26.57,57.57 35.85,87.71l0.01 0.02c2.33,7.49 4.64,15.12 6.96,22.82 16.2,53.7 33.56,111.23 70.89,154.28m-170.66 -327.82c0,0 0,0 0,0l5.26 -8.85m0 0c50.66,30.25 78.62,95.64 97.37,156.52l68.03 180.14m0 0c26.5,30.7 59.05,49.61 91.71,65.93 7.98,3.99 15.92,7.79 23.79,11.58 24.78,11.89 48.83,23.45 71.21,38.99l0.02 0.02c63.81,44.16 110.45,119.73 138.95,199.4 0.37,1.05 0.75,2.12 1.14,3.21 10.54,29.59 25.8,72.39 34.62,114.12 4.56,21.63 7.31,42.53 6.88,60.86 -0.43,18.46 -4.06,33.25 -11.21,43.6l-0.02 0.04c-15.63,22.8 -43.5,25.8 -78.14,17.23 -34.16,-8.46 -70.24,-27.18 -96.17,-40.97l-0.01 -0.02c-9.3,-4.94 -18.73,-10.08 -28.25,-15.29 -20.58,-11.25 -41.56,-22.73 -62.53,-32.66 -30.88,-14.63 -62.87,-26.46 -96,-30.22l-0.01 0c-59.33,-6.71 -114.68,13.7 -165.33,33.53l-1.5 0.58c-50.77,19.9 -100.31,39.3 -153.58,35.93 -53.35,-3.38 -112.11,-35.41 -138.23,-91.75l462.65 -414.12zm0 0l7.77 -6.75 -7.78 6.73c0.01,0.02 0.01,0.02 0.02,0.02zm177.95 523.09c-9.56,-5.06 -19.12,-10.31 -28.71,-15.54 -50.45,-27.62 -101.43,-55.5 -154.41,-61.5 -56.48,-6.38 -109.58,12.96 -160.42,32.88l-2.45 0.96c-50.08,19.61 -101.46,39.75 -157.04,36.23 -56.48,-3.55 -118.95,-37.38 -146.9,-97.69l649.93 104.65zm0 0c51.6,27.43 148.6,77.4 187.62,20.47l-187.62 -20.47z"/>
  </g>
  <path class="fil2 str10" d="M2001.4 7057.47c-306.02,-309.26 -660.82,-523.81 -1041.32,-629.78"/>
  <path class="fil2 str11" d="M10769.9 1455.45c0,59.56 -48.21,107.85 -107.7,107.85 -59.46,0 -107.69,-48.29 -107.69,-107.85 0,-59.56 48.23,-107.84 107.69,-107.84 59.31,0 107.7,48.29 107.7,107.84z"/>
  <line class="fil2 str11" x1="10740.06" y1="1529.85" x2="10816.05" y2= "1606.12" />
  <line class="fil2 str12" x1="6556.33" y1="2.84" x2="6669.64" y2= "116.3" />
  <line class="fil2 str12" x1="6669.64" y1="2.84" x2="6556.33" y2= "116.3" />
  <line class="fil2 str11" x1="8180.35" y1="6534.94" x2="8293.64" y2= "6648.42" />
  <line class="fil2 str11" x1="8293.64" y1="6534.94" x2="8180.35" y2= "6648.42" />
  <line class="fil2 str11" x1="989.8" y1="5031.37" x2="989.8" y2= "5191.82" />
  <line class="fil2 str11" x1="1070.12" y1="5111.57" x2="909.7" y2= "5111.57" />
  <path class="fil2 str11" d="M641.32 3799.45c0,53.72 -43.53,97.51 -97.37,97.51 -53.66,0 -97.38,-43.6 -97.38,-97.51 0,-53.75 43.53,-97.51 97.38,-97.51 53.85,0.18 97.37,43.76 97.37,97.51z"/>
  <path class="fil2 str11" d="M4683.05 6157.88c0,53.75 -43.53,97.51 -97.38,97.51 -53.64,0 -97.37,-43.57 -97.37,-97.51 0,-53.72 43.51,-97.51 97.37,-97.51 53.85,0.19 97.38,43.79 97.38,97.51z"/>
  <path class="fil2 str11" d="M11109.24 4401.74c0,53.74 -43.52,97.51 -97.37,97.51 -53.67,0 -97.39,-43.58 -97.39,-97.51 0,-53.72 43.54,-97.51 97.39,-97.51 53.85,0.19 97.37,43.78 97.37,97.51z"/>
  <path class="fil3 str2" d="M51.38 2090.58c0,13.85 -11.2,25.02 -24.98,25.02 -13.78,0 -24.98,-11.17 -24.98,-25.02 0,-13.83 11.2,-25.02 24.98,-25.02 13.78,0 24.98,11.19 24.98,25.02z"/>
  <path class="fil3 str2" d="M297.73 2090.58c0,13.85 -11.2,25.02 -24.98,25.02 -13.79,0 -24.98,-11.17 -24.98,-25.02 0,-13.83 11.2,-25.02 24.98,-25.02 13.78,0 24.98,11.19 24.98,25.02z"/>
  <path class="fil3 str2" d="M543.9 2090.58c0,13.85 -11.2,25.02 -24.98,25.02 -13.79,0 -24.98,-11.17 -24.98,-25.02 0,-13.83 11.19,-25.02 24.98,-25.02 13.78,0 24.98,11.19 24.98,25.02z"/>
  <path class="fil3 str2" d="M790.25 2090.58c0,13.85 -11.19,25.02 -24.98,25.02 -13.78,0 -24.98,-11.17 -24.98,-25.02 0,-13.83 11.2,-25.02 24.98,-25.02 13.79,0 24.98,11.19 24.98,25.02z"/>
  <path class="fil3 str2" d="M1036.41 2090.58c0,13.85 -11.2,25.02 -24.98,25.02 -13.78,0 -24.98,-11.17 -24.98,-25.02 0,-13.83 11.2,-25.02 24.98,-25.02 13.78,0 24.98,11.19 24.98,25.02z"/>
  <path class="fil3 str2" d="M1282.76 2090.58c0,13.85 -11.2,25.02 -24.98,25.02 -13.78,0 -24.98,-11.17 -24.98,-25.02 0,-13.83 11.2,-25.02 24.98,-25.02 13.78,0 24.98,11.19 24.98,25.02z"/>
  <path class="fil3 str2" d="M51.38 2337.08c0,13.85 -11.2,25.02 -24.98,25.02 -13.78,0 -24.98,-11.17 -24.98,-25.02 0,-13.83 11.2,-25.02 24.98,-25.02 13.78,0 24.98,11.19 24.98,25.02z"/>
  <path class="fil3 str2" d="M297.73 2337.08c0,13.85 -11.2,25.02 -24.98,25.02 -13.79,0 -24.98,-11.17 -24.98,-25.02 0,-13.83 11.19,-25.02 24.98,-25.02 13.78,0 24.98,11.19 24.98,25.02z"/>
  <path class="fil3 str2" d="M543.9 2337.08c0,13.85 -11.2,25.02 -24.98,25.02 -13.79,0 -24.98,-11.17 -24.98,-25.02 0,-13.83 11.19,-25.02 24.98,-25.02 13.78,0 24.98,11.19 24.98,25.02z"/>
  <path class="fil3 str2" d="M790.25 2337.08c0,13.85 -11.19,25.02 -24.98,25.02 -13.78,0 -24.98,-11.17 -24.98,-25.02 0,-13.83 11.2,-25.02 24.98,-25.02 13.79,0 24.98,11.19 24.98,25.02z"/>
  <path class="fil3 str2" d="M1036.41 2337.08c0,13.85 -11.2,25.02 -24.98,25.02 -13.78,0 -24.98,-11.17 -24.98,-25.02 0,-13.83 11.2,-25.02 24.98,-25.02 13.78,0 24.98,11.19 24.98,25.02z"/>
  <path class="fil3 str2" d="M1282.76 2337.08c0,13.85 -11.2,25.02 -24.98,25.02 -13.78,0 -24.98,-11.17 -24.98,-25.02 0,-13.83 11.2,-25.02 24.98,-25.02 13.78,0 24.98,11.19 24.98,25.02z"/>
  <path class="fil3 str2" d="M51.38 2583.77c0,13.85 -11.2,25.04 -24.98,25.04 -13.78,0 -24.98,-11.19 -24.98,-25.04 0,-13.83 11.2,-25.02 24.98,-25.02 13.78,0 24.98,11.19 24.98,25.02z"/>
  <path class="fil3 str2" d="M297.73 2583.77c0,13.85 -11.2,25.04 -24.98,25.04 -13.79,0 -24.98,-11.19 -24.98,-25.04 0,-13.83 11.2,-25.02 24.98,-25.02 13.78,0 24.98,11.19 24.98,25.02z"/>
  <path class="fil3 str2" d="M543.9 2583.77c0,13.85 -11.2,25.04 -24.98,25.04 -13.79,0 -24.98,-11.19 -24.98,-25.04 0,-13.83 11.19,-25.02 24.98,-25.02 13.78,0 24.98,11.19 24.98,25.02z"/>
  <path class="fil3 str2" d="M790.25 2583.77c0,13.85 -11.19,25.04 -24.98,25.04 -13.78,0 -24.98,-11.19 -24.98,-25.04 0,-13.83 11.2,-25.02 24.98,-25.02 13.79,0 24.98,11.19 24.98,25.02z"/>
  <path class="fil3 str2" d="M1036.41 2583.77c0,13.85 -11.2,25.04 -24.98,25.04 -13.78,0 -24.98,-11.19 -24.98,-25.04 0,-13.83 11.2,-25.02 24.98,-25.02 13.78,0 24.98,11.19 24.98,25.02z"/>
  <path class="fil3 str2" d="M1282.76 2583.77c0,13.85 -11.2,25.04 -24.98,25.04 -13.78,0 -24.98,-11.19 -24.98,-25.04 0,-13.83 11.2,-25.02 24.98,-25.02 13.78,0 24.98,11.19 24.98,25.02z"/>
  <path class="fil3 str2" d="M51.38 2830.27c0,13.85 -11.2,25.04 -24.98,25.04 -13.78,0 -24.98,-11.19 -24.98,-25.04 0,-13.83 11.2,-25.02 24.98,-25.02 13.78,0 24.98,11.19 24.98,25.02z"/>
  <path class="fil3 str2" d="M297.73 2830.27c0,13.85 -11.2,25.04 -24.98,25.04 -13.78,0 -24.98,-11.19 -24.98,-25.04 0,-13.83 11.2,-25.02 24.98,-25.02 13.78,0 24.98,11.19 24.98,25.02z"/>
  <path class="fil3 str2" d="M543.9 2830.27c0,13.85 -11.2,25.04 -24.98,25.04 -13.79,0 -24.98,-11.19 -24.98,-25.04 0,-13.83 11.19,-25.02 24.98,-25.02 13.78,0 24.98,11.19 24.98,25.02z"/>
  <path class="fil3 str2" d="M790.25 2830.27c0,13.85 -11.19,25.04 -24.98,25.04 -13.78,0 -24.98,-11.19 -24.98,-25.04 0,-13.83 11.2,-25.02 24.98,-25.02 13.79,0 24.98,11.19 24.98,25.02z"/>
  <path class="fil3 str2" d="M1036.41 2830.27c0,13.85 -11.2,25.04 -24.98,25.04 -13.78,0 -24.98,-11.19 -24.98,-25.04 0,-13.83 11.2,-25.02 24.98,-25.02 13.78,0 24.98,11.19 24.98,25.02z"/>
  <path class="fil3 str2" d="M1282.76 2830.27c0,13.85 -11.2,25.04 -24.98,25.04 -13.78,0 -24.98,-11.19 -24.98,-25.04 0,-13.83 11.2,-25.02 24.98,-25.02 13.78,0 24.98,11.19 24.98,25.02z"/>
  <path class="fil5 str13" d="M3851.72 6735.14c0,13.84 -11.2,25.04 -24.98,25.04 -13.79,0 -24.98,-11.2 -24.98,-25.04 0,-13.83 11.19,-25.03 24.98,-25.03 13.78,0 24.98,11.2 24.98,25.03z"/>
  <path class="fil5 str13" d="M4098.06 6735.14c0,13.84 -11.2,25.04 -24.98,25.04 -13.76,0 -24.98,-11.2 -24.98,-25.04 0,-13.83 11.21,-25.03 24.98,-25.03 13.78,0 24.98,11.2 24.98,25.03z"/>
  <path class="fil5 str13" d="M4344.22 6735.14c0,13.84 -11.19,25.04 -24.98,25.04 -13.78,0 -24.98,-11.2 -24.98,-25.04 0,-13.83 11.2,-25.03 24.98,-25.03 13.79,0 24.98,11.2 24.98,25.03z"/>
  <path class="fil5 str13" d="M4590.59 6735.14c0,13.84 -11.21,25.04 -24.98,25.04 -13.79,0 -24.98,-11.2 -24.98,-25.04 0,-13.83 11.19,-25.03 24.98,-25.03 13.76,0 24.98,11.2 24.98,25.03z"/>
  <path class="fil5 str13" d="M4836.74 6735.14c0,13.84 -11.19,25.04 -24.98,25.04 -13.79,0 -24.98,-11.2 -24.98,-25.04 0,-13.83 11.19,-25.03 24.98,-25.03 13.79,0 24.98,11.2 24.98,25.03z"/>
  <path class="fil5 str13" d="M3851.72 6981.83c0,13.84 -11.2,25.04 -24.98,25.04 -13.79,0 -24.98,-11.2 -24.98,-25.04 0,-13.83 11.19,-25.03 24.98,-25.03 13.78,0 24.98,11.2 24.98,25.03z"/>
  <path class="fil5 str13" d="M4098.06 6981.83c0,13.84 -11.2,25.04 -24.98,25.04 -13.76,0 -24.98,-11.2 -24.98,-25.04 0,-13.83 11.21,-25.03 24.98,-25.03 13.78,0 24.98,11.2 24.98,25.03z"/>
  <path class="fil5 str13" d="M4344.22 6981.83c0,13.84 -11.19,25.04 -24.98,25.04 -13.78,0 -24.98,-11.2 -24.98,-25.04 0,-13.83 11.2,-25.03 24.98,-25.03 13.79,0 24.98,11.2 24.98,25.03z"/>
  <path class="fil5 str13" d="M4590.59 6981.83c0,13.84 -11.21,25.04 -24.98,25.04 -13.79,0 -24.98,-11.2 -24.98,-25.04 0,-13.83 11.19,-25.03 24.98,-25.03 13.76,0 24.98,11.2 24.98,25.03z"/>
  <path class="fil5 str13" d="M4836.74 6981.83c0,13.84 -11.19,25.04 -24.98,25.04 -13.79,0 -24.98,-11.2 -24.98,-25.04 0,-13.83 11.19,-25.03 24.98,-25.03 13.79,0 24.98,11.2 24.98,25.03z"/>
  <path class="fil5 str13" d="M10092.6 566.58c0,13.84 -11.19,25.03 -24.98,25.03 -13.79,0 -24.98,-11.19 -24.98,-25.03 0,-13.83 11.19,-25.03 24.98,-25.03 13.79,0 24.98,11.19 24.98,25.03z"/>
  <path class="fil5 str13" d="M10338.77 566.58c0,13.84 -11.2,25.03 -24.98,25.03 -13.79,0 -24.98,-11.19 -24.98,-25.03 0,-13.83 11.19,-25.03 24.98,-25.03 13.78,0 24.98,11.19 24.98,25.03z"/>
  <path class="fil5 str13" d="M10585.11 566.58c0,13.84 -11.2,25.03 -24.98,25.03 -13.77,0 -24.99,-11.19 -24.99,-25.03 0,-13.83 11.21,-25.03 24.99,-25.03 13.78,0 24.98,11.19 24.98,25.03z"/>
  <path class="fil5 str13" d="M10092.6 813.27c0,13.84 -11.19,25.03 -24.98,25.03 -13.79,0 -24.98,-11.19 -24.98,-25.03 0,-13.83 11.19,-25.03 24.98,-25.03 13.79,0 24.98,11.19 24.98,25.03z"/>
  <path class="fil5 str13" d="M10338.77 813.27c0,13.84 -11.2,25.03 -24.98,25.03 -13.79,0 -24.98,-11.19 -24.98,-25.03 0,-13.83 11.19,-25.03 24.98,-25.03 13.78,0 24.98,11.19 24.98,25.03z"/>
  <path class="fil5 str13" d="M10585.11 813.27c0,13.84 -11.2,25.03 -24.98,25.03 -13.77,0 -24.99,-11.19 -24.99,-25.03 0,-13.83 11.21,-25.03 24.99,-25.03 13.78,0 24.98,11.19 24.98,25.03z"/>
  <path class="fil6 str14" d="M3645.09 99.89c0,13.84 -11.19,25.03 -24.98,25.03 -13.78,0 -24.98,-11.19 -24.98,-25.03 0,-13.83 11.2,-25.03 24.98,-25.03 13.79,0 24.98,11.19 24.98,25.03z"/>
  <path class="fil6 str14" d="M3891.26 99.89c0,13.84 -11.19,25.03 -24.98,25.03 -13.79,0 -24.98,-11.19 -24.98,-25.03 0,-13.83 11.19,-25.03 24.98,-25.03 13.79,0 24.98,11.19 24.98,25.03z"/>
  <path class="fil6 str14" d="M4137.6 99.89c0,13.84 -11.19,25.03 -24.98,25.03 -13.77,0 -24.98,-11.19 -24.98,-25.03 0,-13.83 11.21,-25.03 24.98,-25.03 13.79,0 24.98,11.19 24.98,25.03z"/>
  <path class="fil6 str14" d="M3645.09 346.57c0,13.84 -11.19,25.03 -24.98,25.03 -13.78,0 -24.98,-11.19 -24.98,-25.03 0,-13.83 11.2,-25.03 24.98,-25.03 13.79,0 24.98,11.19 24.98,25.03z"/>
  <path class="fil6 str14" d="M3891.26 346.57c0,13.84 -11.21,25.03 -24.98,25.03 -13.79,0 -24.98,-11.19 -24.98,-25.03 0,-13.83 11.19,-25.03 24.98,-25.03 13.79,0 24.98,11.19 24.98,25.03z"/>
  <path class="fil6 str14" d="M4137.6 346.57c0,13.84 -11.19,25.03 -24.98,25.03 -13.77,0 -24.98,-11.19 -24.98,-25.03 0,-13.83 11.21,-25.03 24.98,-25.03 13.79,0 24.98,11.19 24.98,25.03z"/>
  <path class="fil3 str2" d="M12305.97 3899.97c0,13.83 -11.19,25.02 -24.98,25.02 -13.79,0 -24.98,-11.19 -24.98,-25.02 0,-13.83 11.19,-25.02 24.98,-25.02 13.79,0 24.98,11.19 24.98,25.02z"/>
  <path class="fil3 str2" d="M12305.97 4146.66c0,13.83 -11.19,25.02 -24.98,25.02 -13.79,0 -24.98,-11.19 -24.98,-25.02 0,-13.83 11.19,-25.02 24.98,-25.02 13.79,0 24.98,11.19 24.98,25.02z"/>
  <path class="fil3 str2" d="M12305.97 4393.16c0,13.83 -11.19,25.02 -24.98,25.02 -13.79,0 -24.98,-11.19 -24.98,-25.02 0,-13.83 11.19,-25.02 24.98,-25.02 13.79,0 24.98,11.19 24.98,25.02z"/>
  <path class="fil3 str2" d="M12305.97 4639.85c0,13.85 -11.19,25.02 -24.98,25.02 -13.79,0 -24.98,-11.17 -24.98,-25.02 0,-13.83 11.19,-25.02 24.98,-25.02 13.79,0 24.98,11.19 24.98,25.02z"/>
  <path class="fil3 str2" d="M12305.97 4886.35c0,13.85 -11.19,25.02 -24.98,25.02 -13.79,0 -24.98,-11.17 -24.98,-25.02 0,-13.83 11.19,-25.02 24.98,-25.02 13.79,0 24.98,11.19 24.98,25.02z"/>
  <path class="fil3 str2" d="M12305.97 5133.04c0,13.85 -11.19,25.04 -24.98,25.04 -13.79,0 -24.98,-11.19 -24.98,-25.04 0,-13.83 11.19,-25.02 24.98,-25.02 13.79,0 24.98,11.19 24.98,25.02z"/>
  <path class="fil3 str2" d="M12305.97 5379.54c0,13.85 -11.19,25.02 -24.98,25.02 -13.79,0 -24.98,-11.17 -24.98,-25.02 0,-13.83 11.19,-25.02 24.98,-25.02 13.79,0 24.98,11.19 24.98,25.02z"/>
  <path class="fil3 str2" d="M12059.62 3899.97c0,13.83 -11.2,25.02 -24.98,25.02 -13.79,0 -24.98,-11.19 -24.98,-25.02 0,-13.83 11.19,-25.02 24.98,-25.02 13.78,0 24.98,11.19 24.98,25.02z"/>
  <path class="fil3 str2" d="M12059.62 4146.66c0,13.83 -11.2,25.02 -24.98,25.02 -13.79,0 -24.98,-11.19 -24.98,-25.02 0,-13.83 11.19,-25.02 24.98,-25.02 13.78,0 24.98,11.19 24.98,25.02z"/>
  <path class="fil3 str2" d="M12059.62 4393.16c0,13.83 -11.2,25.02 -24.98,25.02 -13.79,0 -24.98,-11.19 -24.98,-25.02 0,-13.83 11.19,-25.02 24.98,-25.02 13.78,0 24.98,11.19 24.98,25.02z"/>
  <path class="fil3 str2" d="M12059.62 4639.85c0,13.85 -11.2,25.02 -24.98,25.02 -13.79,0 -24.98,-11.17 -24.98,-25.02 0,-13.83 11.19,-25.02 24.98,-25.02 13.78,0 24.98,11.19 24.98,25.02z"/>
  <path class="fil3 str2" d="M12059.62 4886.35c0,13.85 -11.2,25.02 -24.98,25.02 -13.79,0 -24.98,-11.17 -24.98,-25.02 0,-13.83 11.19,-25.02 24.98,-25.02 13.78,0 24.98,11.19 24.98,25.02z"/>
  <path class="fil3 str2" d="M12059.62 5133.04c0,13.85 -11.2,25.04 -24.98,25.04 -13.79,0 -24.98,-11.19 -24.98,-25.04 0,-13.83 11.19,-25.02 24.98,-25.02 13.78,0 24.98,11.19 24.98,25.02z"/>
  <path class="fil3 str2" d="M12059.62 5379.54c0,13.85 -11.2,25.02 -24.98,25.02 -13.79,0 -24.98,-11.17 -24.98,-25.02 0,-13.83 11.19,-25.02 24.98,-25.02 13.78,0 24.98,11.19 24.98,25.02z"/>
  <path class="fil3 str2" d="M11813.46 3899.97c0,13.83 -11.19,25.02 -24.98,25.02 -13.78,0 -24.98,-11.19 -24.98,-25.02 0,-13.83 11.2,-25.02 24.98,-25.02 13.79,0 24.98,11.19 24.98,25.02z"/>
  <path class="fil3 str2" d="M11813.46 4146.66c0,13.83 -11.19,25.02 -24.98,25.02 -13.78,0 -24.98,-11.19 -24.98,-25.02 0,-13.83 11.2,-25.02 24.98,-25.02 13.79,0 24.98,11.19 24.98,25.02z"/>
  <path class="fil3 str2" d="M11813.46 4393.16c0,13.83 -11.19,25.02 -24.98,25.02 -13.78,0 -24.98,-11.19 -24.98,-25.02 0,-13.83 11.2,-25.02 24.98,-25.02 13.79,0 24.98,11.19 24.98,25.02z"/>
  <path class="fil3 str2" d="M11813.46 4639.85c0,13.85 -11.19,25.02 -24.98,25.02 -13.78,0 -24.98,-11.17 -24.98,-25.02 0,-13.83 11.2,-25.02 24.98,-25.02 13.79,0 24.98,11.19 24.98,25.02z"/>
  <path class="fil3 str2" d="M11813.46 4886.35c0,13.85 -11.19,25.02 -24.98,25.02 -13.78,0 -24.98,-11.17 -24.98,-25.02 0,-13.83 11.2,-25.02 24.98,-25.02 13.79,0 24.98,11.19 24.98,25.02z"/>
  <path class="fil3 str2" d="M11813.46 5133.04c0,13.85 -11.19,25.04 -24.98,25.04 -13.78,0 -24.98,-11.19 -24.98,-25.04 0,-13.83 11.2,-25.02 24.98,-25.02 13.79,0 24.98,11.19 24.98,25.02z"/>
  <path class="fil3 str2" d="M11813.46 5379.54c0,13.85 -11.19,25.02 -24.98,25.02 -13.78,0 -24.98,-11.17 -24.98,-25.02 0,-13.83 11.2,-25.02 24.98,-25.02 13.79,0 24.98,11.19 24.98,25.02z"/>
  <path class="fil3 str2" d="M11567.11 3899.97c0,13.83 -11.19,25.02 -24.98,25.02 -13.79,0 -24.98,-11.19 -24.98,-25.02 0,-13.83 11.19,-25.02 24.98,-25.02 13.79,0 24.98,11.19 24.98,25.02z"/>
  <path class="fil3 str2" d="M11567.11 4146.66c0,13.83 -11.19,25.02 -24.98,25.02 -13.79,0 -24.98,-11.19 -24.98,-25.02 0,-13.83 11.19,-25.02 24.98,-25.02 13.79,0 24.98,11.19 24.98,25.02z"/>
  <path class="fil3 str2" d="M11567.11 4393.16c0,13.83 -11.19,25.02 -24.98,25.02 -13.79,0 -24.98,-11.19 -24.98,-25.02 0,-13.83 11.19,-25.02 24.98,-25.02 13.79,0 24.98,11.19 24.98,25.02z"/>
  <path class="fil3 str2" d="M11567.11 4639.85c0,13.85 -11.19,25.02 -24.98,25.02 -13.79,0 -24.98,-11.17 -24.98,-25.02 0,-13.83 11.19,-25.02 24.98,-25.02 13.79,0 24.98,11.19 24.98,25.02z"/>
  <path class="fil3 str2" d="M11567.11 4886.35c0,13.85 -11.19,25.02 -24.98,25.02 -13.79,0 -24.98,-11.17 -24.98,-25.02 0,-13.83 11.19,-25.02 24.98,-25.02 13.79,0 24.98,11.19 24.98,25.02z"/>
  <path class="fil3 str2" d="M11567.11 5133.04c0,13.85 -11.19,25.04 -24.98,25.04 -13.79,0 -24.98,-11.19 -24.98,-25.04 0,-13.83 11.19,-25.02 24.98,-25.02 13.79,0 24.98,11.19 24.98,25.02z"/>
  <path class="fil3 str2" d="M11567.11 5379.54c0,13.85 -11.19,25.02 -24.98,25.02 -13.79,0 -24.98,-11.17 -24.98,-25.02 0,-13.83 11.19,-25.02 24.98,-25.02 13.79,0 24.98,11.19 24.98,25.02z"/>
  <path class="fil7 str15" d="M9436.63 5369.98l-6394.31 0c-115.45,0 -209.24,-94.53 -209.24,-211.28l0 -3941.22c0,-116.75 93.79,-211.29 209.24,-211.29l6394.5 0c115.43,0 209.24,94.53 209.24,211.29l0 3941.21c-0.19,116.77 -93.99,211.3 -209.42,211.3z"/>
  <path class="fil8" d="M9427.37 5193.55l-6375.88 0c-98.89,0 -179.18,-80.41 -179.18,-179.42l0 -3795.8c0,-99.01 80.29,-179.43 179.18,-179.43l6375.88 0c98.89,0 179.2,80.41 179.2,179.43l0 3795.8c0,99.19 -80.31,179.42 -179.2,179.42z"/>
  <path class="fil9" d="M7330.49 1394.01l0 2678.07c0,80.79 -65.31,146.17 -145.99,146.17l-4026.82 0c-36.19,0 -69.41,-13.14 -94.94,-35.12 -31.13,-26.88 -51.03,-66.52 -51.03,-111.05l0 -2678.07c0,-80.79 65.5,-146.17 145.97,-146.17l4026.82 0c36.22,0 69.61,13.15 94.94,35.14 31.34,26.87 51.06,66.51 51.06,111.04z"/>
  <path class="fil9" d="M9322.43 2392.6l-1666.85 0c-80.68,0 -145.99,-65.37 -145.99,-146.17l0 -852.42c0,-80.79 65.31,-146.17 145.99,-146.17l1666.85 0c80.68,0 145.97,65.39 145.97,146.17l0 852.42c0,80.8 -65.47,146.17 -145.97,146.17z"/>
  <path class="fil9" d="M9322.43 3740.22l-1666.85 0c-80.68,0 -145.99,-65.4 -145.99,-146.17l0 -852.43c0,-80.78 65.31,-146.17 145.99,-146.17l1666.85 0c80.68,0 145.97,65.4 145.97,146.17l0 852.43c0,80.78 -65.47,146.17 -145.97,146.17z"/>
  <path class="fil9" d="M9322.43 5017.07l-1666.85 0c-80.68,0 -145.99,-65.4 -145.99,-146.17l0 -771.26c0,-80.78 65.31,-146.17 145.99,-146.17l1666.85 0c80.68,0 145.97,65.4 145.97,146.17l0 771.26c0,80.78 -65.47,146.17 -145.97,146.17z"/>
  <path class="fil9" d="M5213.88 4505.73l-2149.06 0c-29.28,0 -52.92,-23.68 -52.92,-52.98 0,-29.32 23.64,-52.98 52.92,-52.98l2149.06 0c29.26,0 52.9,23.66 52.9,52.98 0,29.12 -23.64,52.98 -52.9,52.98z"/>
  <path class="fil9" d="M5337.92 5002.85l-2270.96 0c-30.94,0 -55.92,-22.96 -55.92,-51.41l0 -205.82c0,-28.46 24.98,-51.42 55.92,-51.42l2270.96 0c30.94,0 55.92,22.97 55.92,51.42l0 205.82c0,28.44 -24.98,51.41 -55.92,51.41z"/>
  <path class="fil9" d="M6804.94 4505.73l472.63 0c29.28,0 52.93,-23.68 52.93,-52.98 0,-29.32 -23.65,-52.98 -52.93,-52.98l-472.63 0c-29.26,0 -52.91,23.66 -52.91,52.98 0,29.12 23.64,52.98 52.91,52.98z"/>
  <path class="fil9" d="M6003.22 4505.73l472.61 0c29.28,0 52.92,-23.68 52.92,-52.98 0,-29.32 -23.64,-52.98 -52.92,-52.98l-472.61 0c-29.28,0 -52.92,23.66 -52.92,52.98 -0.19,29.12 23.64,52.98 52.92,52.98z"/>
  <path class="fil9" d="M6340.2 5005.12l937.36 0c29.28,0 52.93,-23.69 52.93,-52.98l0 -212.12c0,-29.33 -23.65,-52.98 -52.93,-52.98l-937.36 0c-29.28,0 -52.92,23.66 -52.92,52.98l0 212.12c0,29.29 23.64,52.98 52.92,52.98z"/>
  <g>
   <path class="fil10 str16" d="M8482.96 2125.06c163.2,0 295.51,-132.49 295.51,-295.91 0,-163.43 -132.31,-295.92 -295.51,-295.92 -163.21,0 -295.52,132.49 -295.52,295.92 0,163.43 132.31,295.91 295.52,295.91z"/>
   <path class="fil10 str16" d="M8604.05 1799.97l-168.68 -97.51c-18.56,-10.7 -41.64,2.64 -41.64,24.05l0 195.02c0,21.42 23.08,34.76 41.64,24.05l168.68 -97.51c18.59,-10.71 18.59,-37.39 0,-48.1z"/>
  </g>
  <g>
   <path class="fil10 str16" d="M8482.96 3454.76c163.2,0 295.51,-132.49 295.51,-295.92 0,-163.41 -132.31,-295.91 -295.51,-295.91 -163.21,0 -295.52,132.49 -295.52,295.91 0,163.44 132.31,295.92 295.52,295.92z"/>
   <path class="fil10 str16" d="M8604.05 3129.66l-168.68 -97.51c-18.56,-10.7 -41.64,2.64 -41.64,24.05l0 195.03c0,21.42 23.08,34.75 41.64,24.05l168.68 -97.51c18.59,-10.72 18.59,-37.39 0,-48.11z"/>
  </g>
  <g>
   <path class="fil10 str16" d="M8482.96 4771.63c163.2,0 295.51,-132.49 295.51,-295.92 0,-163.41 -132.31,-295.91 -295.51,-295.91 -163.21,0 -295.52,132.49 -295.52,295.91 0,163.44 132.31,295.92 295.52,295.92z"/>
   <path class="fil10 str16" d="M8604.05 4446.53l-168.68 -97.51c-18.56,-10.7 -41.64,2.63 -41.64,24.05l0 195.02c0,21.42 23.08,34.75 41.64,24.05l168.68 -97.51c18.59,-10.72 18.59,-37.38 0,-48.11z"/>
  </g>
  <path class="fil11" d="M7279.44 1282.97l-4216.7 2900.14c-31.13,-26.85 -51.03,-66.5 -51.03,-111.03l0 -2678.07c0,-80.79 65.5,-146.17 145.97,-146.17l4026.82 0c36.22,0 69.61,13.15 94.94,35.14z"/>
  <g style="clip-path:url(#id0)">
   <polygon class="fil12" points="3024.68,646.1 7335.74,646.1 7335.74,4223.92 3024.68,4223.92 "/>
  </g>
  <g style="clip-path:url(#id1)">
   <g>
    <path id="1" class="fil13" d="M6996.13 2923.98c0,0 240.71,-190.31 247.1,-244.79 12.01,-102.59 48.78,-183 269.05,-251.01 0,0 17.08,32.68 -13.49,68.19 -33.39,38.52 -59.86,52.04 -59.86,52.04 0,0 58.36,22.37 145.23,-45.64 86.88,-67.84 123.46,-126.83 160.05,-112.37 0,0 43.15,-39.07 63.6,-32.88 0,0 15.02,4.51 12.2,20.68 33.95,-5.27 27.02,92.8 -33.39,172.47 -86.88,114.61 -195.33,213.25 -284.08,245.74 -66.6,24.44 -341.85,304.94 -341.85,304.94l-164.54 -177.37z"/>
    <path class="fil14" d="M6252.75 3894.97c-105.07,35.52 -688.01,-862.2 -688.01,-862.2 -225.35,-259.65 -23.08,-1114.89 180.87,-815.03 0,0 530.41,960.83 587.64,1038.24 71.11,96.19 307.71,507.66 -80.5,638.99z"/>
    <path class="fil14" d="M5595.87 4786.08l-1537.02 0c0,0 -118.02,-52.04 -15.39,-278.99 38.46,-84.74 21.78,-303.07 15.39,-602.74 -12.94,-592.58 -188.56,-1576.14 28.15,-1688.88 129.83,-67.82 405.64,-157.05 605.82,-218.12 12.02,-3.38 23.64,-6.95 35.1,-10.34 116.87,-34.95 200.37,-58.05 200.37,-58.05 0,0 96.81,14.09 293.46,72.33 10.68,3.2 21.75,6.58 33.21,9.96 51.22,15.59 108.25,33.81 171.67,55.42 343.73,117.06 305.08,75.35 350.68,505.22 36.41,343.25 -181.44,2214.19 -181.44,2214.19z"/>
    <path class="fil15" d="M5254.97 2011.06c-4.5,72.89 -37.16,137.34 -86.87,184.5 -50.48,48.29 -118.95,77.59 -193.64,77.59 -154.04,0 -278.63,-123.44 -281.82,-275.8 12.02,-3.38 23.64,-6.95 35.1,-10.34 116.87,-34.95 200.37,-58.05 200.37,-58.05 0,0 96.81,14.09 293.46,72.33 10.68,3.01 21.94,6.38 33.39,9.77z"/>
    <path class="fil16" d="M5221.19 1395.75l-24.2 468.2 -6.93 133.58c-2.82,56.75 -27.78,107.28 -66.42,143.73 -38.27,36.46 -90.06,58.62 -146.73,58.62 -119.9,0 -216.52,-99.01 -213.33,-218.88l6.01 -238.42 10.12 -396.06 441.48 49.23z"/>
    <path class="fil17" d="M5221.19 1489.32l-24.2 440.96c-207.14,8.27 -358.17,-75.9 -427.4,-188.26l10.12 -301.55 441.48 48.85z"/>
    <path class="fil18" d="M4642.17 937.32c0,0 -198.49,-24.8 -175.8,224.33 17.65,193.15 279.75,450.92 279.75,450.92 0,0 165.49,-582.06 -103.95,-675.25z"/>
    <path class="fil19" d="M5452.91 1116.75c-13.52,30.81 -34.34,57.68 -51.42,86.62 -16.87,28.93 -30.39,62 -26.62,95.44 -3.4,-54.3 -39.22,-99.95 -70.19,-144.48 -30.95,-44.72 -59.1,-98.83 -44.28,-151.06 14.08,-50.16 104.69,-129.26 159.85,-96.76 61.36,36.08 56.67,155.57 32.65,210.24z"/>
    <path class="fil16" d="M5385.55 1126.71c0,0 15.39,152.56 -5.99,321.46 -24.78,195.21 -15.96,424.43 -303.21,439.83 -306.58,16.34 -408.09,-327.29 -408.09,-327.29 0,0 -162.86,-30.44 -173.93,-140.53 -11.07,-110.29 102.63,-116.49 139.77,-85.49 0,0 42.03,-410.9 421.23,-410.9 334.53,-0.38 330.21,202.91 330.21,202.91z"/>
    <path class="fil20" d="M5025.29 1440.28c0,16.72 -13.49,30.43 -30.38,30.43 -16.87,0 -30.39,-13.53 -30.39,-30.43 0,-16.72 13.52,-30.43 30.39,-30.43 16.89,0 30.38,13.71 30.38,30.43z"/>
    <path class="fil20" d="M5299.99 1440.28c0,16.72 -13.52,30.43 -30.39,30.43 -16.89,0 -30.39,-13.53 -30.39,-30.43 0,-16.72 13.49,-30.43 30.39,-30.43 16.87,0 30.39,13.71 30.39,30.43z"/>
    <path class="fil21 str17" d="M4884.41 1334.5c0,0 45.03,-74.22 140.91,-47.53"/>
    <path class="fil21 str17" d="M5190.61 1285.84c0,0 69.24,-63.32 137.35,6.01"/>
    <path class="fil21 str18" d="M5129.82 1361.19c0,0 32.82,83.98 60.78,136.21 27.97,52.23 -54.59,75.53 -54.59,75.53"/>
    <path class="fil21 str18" d="M5019.87 1666.87c0,0 67.73,65.75 154.8,25.55"/>
    <path class="fil21 str18" d="M4628.65 1455.49c0,0 -0.93,-94.49 -71.46,-68.76"/>
    <path class="fil18" d="M4721.74 1016.23c0,0 172.43,175.86 78.04,243.12 -105.06,74.97 -121.4,180.93 -121.4,180.93 0,0 2.26,-37.38 -44.47,-105.77 -46.71,-68.58 -148.6,-311.7 87.82,-318.28z"/>
    <path class="fil14" d="M6252.75 3894.97c125.35,81.73 1077.92,-937.16 1077.92,-937.16l-169.05 -221.5c0,0 -724.24,455.04 -828.37,519.67 -150.11,93 -502.08,364.3 -80.5,638.99z"/>
    <path class="fil22" d="M5746.17 3302.58c0,0 42.58,-465.77 35.28,-613.65 0,0 60.6,390.99 62.1,752.28l-97.38 -138.64z"/>
    <path class="fil14" d="M4136.53 3143.81c0,0 223.09,-956.5 -15.58,-945.25 0,0 -77.85,9.4 -230.2,246.14 -106.59,165.54 -223.27,452.42 -436.05,919.12 -100.55,220.57 -226.28,519.11 7.14,535.1 126.26,8.64 258.73,-60.51 336.77,-205.74 142.99,-266.04 337.92,-549.36 337.92,-549.36z"/>
    <path class="fil22" d="M4336.16 4334.41l1214.12 -286.52c-0.19,0 -382,286.52 -1214.12,286.52z"/>
    <path class="fil22" d="M4010.07 3336.02c0,0 195.88,-347.39 300.02,-516.87l-244.49 1328.89c0,0 -23.83,-542.78 -55.53,-812.02z"/>
    <polygon class="fil22" points="4790.77,3788.63 4064.68,4128.12 4102.01,3779.04 "/>
    <path class="fil22 str15" d="M4909.72 3730.54l0 0 119.9 -655.52 0 -0.04c6.24,-34.53 36.29,-59.55 71.5,-59.55l254.8 0c45.35,0 79.71,41.16 71.48,85.93l0 0.02 -119.87 655.49c-6.42,34.59 -36.53,59.59 -71.51,59.59l-254.79 0c-45.37,0 -79.73,-41.13 -71.5,-85.93z"/>
    <path class="fil23" d="M5267.54 3854.56l-254.82 0c-51.77,0 -90.99,-46.96 -81.6,-98.07l119.9 -655.52c7.12,-39.47 41.46,-68.02 81.6,-68.02l254.8 0c51.78,0 91,46.97 81.63,98.08l-119.91 655.52c-7.11,39.44 -41.46,68.01 -81.6,68.01z"/>
    <path class="fil22 str15" d="M5078.2 3265.25l0.02 -0.1 29.26 -160.09 0 0 0.02 -0.06c0.43,-2.51 2.65,-4.46 5.43,-4.46l45.6 0c3.54,0 6.11,3.19 5.48,6.56l-0.02 0.1 -29.28 160.06 0 0 0 0.08c-0.43,2.51 -2.65,4.44 -5.45,4.44l-45.57 0c-3.54,0 -6.14,-3.17 -5.48,-6.54z"/>
    <path class="fil13" d="M4551.37 3500.03c0,0 124.22,-4.14 219.35,-33.25 40.91,-12.59 121.95,-27.24 148.79,-66.12 27.02,-39.27 24.57,-124.02 51.58,-127.58 20.84,-2.82 62.49,63.5 51.79,108.22 -10.51,43.78 -15.58,68.02 -31.52,87.57 -5.25,6.57 169.82,18.98 280.7,-5.45 75.99,-16.73 53.46,58.62 1.87,82.29 0,0 18.38,46.03 -35.47,61.62 0,0 0.58,61.44 -50.84,64.26 -5.8,14.28 -15.76,44.72 -60.23,55.62 -64.73,15.97 -162.49,21.98 -260.98,13.15 -50.08,-4.51 -281.26,36.07 -281.26,36.07l-33.77 -276.38z"/>
    <path class="fil14" d="M3454.33 3902.48c177.3,31.01 1234.2,-88.5 1234.2,-88.5l-26.28 -370.31c0,0 -861.19,40.2 -976.03,29.88 -379.75,-33.64 -452.55,390.41 -231.89,428.93z"/>
    <path class="fil18" d="M4763.57 737.02c18.21,-18.23 38.48,-37.58 64,-40.39 25.52,-2.82 54.59,21.03 46.16,45.46 86.87,-37.76 177.67,-65.95 270.56,-83.98 23.27,-4.51 48.39,-8.27 69.97,2.07 21.4,10.33 34.72,40.21 20.09,58.81 45.02,16.91 94.93,5.82 142.78,0.19 47.84,-5.64 102.45,-3.2 134.9,32.31 30.2,32.88 30.78,82.48 29.83,127.2 -1.5,61.25 -3,122.87 -16.89,182.62 -20.64,88.31 -68.66,169.85 -136.02,230.53 20.08,-68.76 -15.77,-145.04 -72.23,-189.19 -56.29,-44.34 -128.91,-61.82 -200.02,-69.9 -85.16,-9.77 -171.85,-7.51 -256.67,6.39 -63.97,10.52 -155.36,56.18 -218.96,27.24 -140.9,-63.88 68.11,-274.87 122.51,-329.36z"/>
   </g>
  </g>
  <path class="fil2" d="M7335.74 822.16l0 3225.69c0,97.3 -65.16,176.07 -145.7,176.07l-4019.64 0c-36.15,0 -69.3,-15.84 -94.78,-42.32 -31.09,-32.37 -50.95,-80.11 -50.95,-133.75l0 -3225.69c0,-97.31 65.37,-176.06 145.72,-176.06l4019.64 0c36.15,0 69.49,15.84 94.78,42.31 31.27,32.37 50.92,80.12 50.92,133.75z"/>
  <path class="fil24" d="M6941.72 1528.72l-882.23 0c-67.53,0 -122.32,-54.86 -122.32,-122.49l0 -370.51c0,-67.63 54.8,-122.5 122.32,-122.5l882.23 0c67.55,0 122.33,54.87 122.33,122.5l0 370.51c0,67.63 -54.78,122.49 -122.33,122.49z"/>
  <polygon class="fil24" points="6125.92,1488.9 6125.92,1657.61 6306.41,1476.87 "/>
  <path class="fil9" d="M6196.29 1291.43c38.84,0 70.35,-31.54 70.35,-70.46 0,-38.91 -31.5,-70.45 -70.35,-70.45 -38.87,0 -70.37,31.54 -70.37,70.45 0,38.91 31.5,70.46 70.37,70.46z"/>
  <path class="fil9" d="M6500.61 1291.43c38.85,0 70.35,-31.54 70.35,-70.46 0,-38.91 -31.5,-70.45 -70.35,-70.45 -38.87,0 -70.37,31.54 -70.37,70.45 0,38.91 31.5,70.46 70.37,70.46z"/>
  <path class="fil9" d="M6804.94 1291.43c38.87,0 70.37,-31.54 70.37,-70.46 0,-38.91 -31.5,-70.45 -70.37,-70.45 -38.85,0 -70.35,31.54 -70.35,70.45 0,38.91 31.5,70.46 70.35,70.46z"/>
  <polygon class="fil25" points="9368.46,6543.64 9328.5,7030.43 9535.82,7030.43 9643.52,6543.64 "/>
  <path class="fil7" d="M9558.34 6928.6c0,0 90.06,145.61 22.53,171.54 -67.55,25.93 -512.22,28.19 -621.97,11.84 -109.78,-16.53 244.84,-167.02 325.9,-190.7 81.24,-23.67 107.3,99.78 273.54,7.33z"/>
  <polygon class="fil25" points="10458.57,6543.64 10498.34,7030.43 10291.01,7030.43 10183.5,6543.64 "/>
  <path class="fil7" d="M10268.5 6928.6c0,0 -90.06,145.61 -22.51,171.54 67.55,25.93 512.22,28.19 621.97,11.84 109.75,-16.53 -244.86,-167.02 -325.91,-190.7 -81.04,-23.67 -107.32,99.78 -273.56,7.33z"/>
  <path class="fil26" d="M9326.81 3881.9l-93.99 2918.75 437.72 0 94.38 -1944.02 375.06 1999.83 476.75 -79.47c0,0 -430.41,-2181.51 -503.58,-2894.9l-786.34 0 0 -0.19z"/>
  <polygon class="fil27 str19" points="9744.79,4990.53 9729.92,4675.72 9754.57,4856.78 "/>
  <line class="fil2 str20" x1="9972.43" y1="3881.9" x2="10479.02" y2= "6793.33" />
  <path class="fil28" d="M9867 1730.46c93.44,0.19 192.68,49.23 224.2,137.35 24.4,67.82 6.01,147.86 40.17,211.37 25.12,46.96 75.41,77.2 98.13,125.31 46.89,99.96 -44.49,218.69 -15.39,325.05 26.83,98.43 148.6,154.81 158.72,256.46 6.57,64.82 -39.01,127 -97.75,155.19 -58.54,28.38 -127.2,28.17 -191.38,17.47 -157.4,-26.48 -305.64,-112.92 -465.1,-104.65 -65.68,3.38 -134.34,22.55 -195.14,-2.82 -43.33,-18.04 -74.67,-56.17 -102.24,-94.13 -31.71,-43.58 -62.12,-93.19 -59.12,-146.92 4.32,-78.9 75.8,-134.16 118.58,-200.47 43.72,-67.82 62.1,-152.55 49.92,-232.41 -57.98,-379.52 155.16,-367.88 182.37,-368.44 24.96,-0.57 107.88,-51.48 140.72,-61.06 37.13,-10.71 75.04,-17.29 113.33,-17.29z"/>
  <path class="fil29" d="M8865.64 3322.77c-90.25,-71.97 -457.25,-315.09 -460.82,-349.09 -6.75,-63.87 -29.08,-114.43 -165.85,-158 0,0 -10.88,20.28 8.06,42.65 20.45,24.24 36.96,32.68 36.96,32.68 0,0 -36.4,13.54 -90.06,-29.3 -53.67,-42.84 -75.99,-79.85 -98.87,-71.03 0,0 -26.64,-24.61 -39.4,-20.84 0,0 -9.39,2.63 -7.7,12.78 -21.22,-3.58 -17.45,57.49 19.5,107.65 53.3,71.95 147.29,126.81 202.45,147.67 41.27,15.59 312.01,416.52 493.45,459.94 52.16,12.02 144.28,-141.66 102.27,-175.1z"/>
  <path class="fil29" d="M9149.51 2967.11c0,0 -405.64,283.33 -444.86,353.78 -39.22,70.46 -9.94,258.52 170.74,137.72 180.68,-120.82 465.86,-340.06 465.86,-340.06l-191.75 -151.44z"/>
  <path class="fil24" d="M9357.97 2709.14c0,0 -111.47,28.19 -185.77,116.67 -62.28,74.21 -162.65,193.7 -162.65,193.7l307.7 239.36c0.18,-0.19 75.24,-435.31 40.72,-549.74z"/>
  <path class="fil5" d="M10113.15 3881.9l-786.53 0c0,0 3.19,-135.08 -40.53,-344.96 -43.89,-209.67 -21.95,-319.39 21.77,-428.93 43.91,-109.53 -34.34,-362.8 50.11,-398.87 34.32,-14.65 93.99,-38.33 152.53,-61.07 14.81,-5.64 29.47,-11.46 43.54,-16.89 67.92,-26.32 125.14,-48.11 125.14,-48.11l141.65 0c0,0 97.57,32.33 197.76,72.32 13.14,5.27 26.46,10.72 39.58,16.18 0,0.19 0,0.19 0,0.19 50.48,21.23 98.7,43.57 131.53,64.07 106.39,65.74 -76.55,1146.07 -76.55,1146.07z"/>
  <path class="fil30" d="M9631.5 2234.55l15.02 291.58 4.32 83.23c1.87,35.33 17.26,66.9 41.28,89.64 23.83,22.73 56.09,36.44 91.38,36.44 74.67,0 134.71,-61.62 132.84,-136.21l-3.77 -148.41 -6.38 -246.69 -274.69 30.43z"/>
  <path class="fil31" d="M9631.5 2234.55l15.02 274.69c128.89,5.24 223.09,-47.37 266.23,-117.24l-6.38 -187.88 -274.88 30.43z"/>
  <path class="fil30" d="M9529.07 2008.72c0,0 -9.56,95.08 3.75,200.1 15.39,121.57 28.89,260.78 188.95,273.93 190.62,15.59 254.22,-203.85 254.22,-203.85 0,0 88.56,-20.68 99.44,-81.18 10.89,-60.68 -55.16,-78.91 -78.23,-59.73 0,0 -26.28,-255.9 -262.3,-255.9 -208.64,0 -205.83,126.63 -205.83,126.63z"/>
  <path class="fil32 str21" d="M10058.17 2671.57c0,0.19 0,0.19 0,0 -161.35,196.89 -351.61,187.69 -351.61,187.69 -150.1,-32.88 -196.07,-211.19 -196.07,-211.19 14.84,-5.64 29.47,-11.46 43.54,-16.89 67.92,-26.32 125.14,-48.11 125.14,-48.11l141.65 0c0,0 97.57,32.33 197.76,72.32 13.14,5.27 26.46,10.72 39.58,16.18z"/>
  <path class="fil29" d="M10018.58 2655.4c-164.55,179.05 -307.15,160.27 -307.15,160.27 -153.29,-58.81 -157.43,-184.49 -157.43,-184.49 67.92,-26.32 125.17,-48.11 125.17,-48.11l141.65 0c0,0 97.57,32.33 197.76,72.32z"/>
  <path class="fil28" d="M9611.26 1826.85c0,0 21.95,185.07 -96.81,246.12 0,0 -59.48,-224.14 96.81,-246.12z"/>
  <path class="fil28" d="M9575.23 1844.51c0,0 42.22,161.2 146.91,170.6 104.69,9.39 86.11,94.32 178.81,104.08 55.16,5.82 79.73,63.34 79.73,63.34 0,0 8.06,-57.12 57.98,-77.41 50.29,-20.31 -118.02,-446.98 -463.44,-260.6z"/>
  <path class="fil33" d="M9752.9 2232.48c0,10.14 8.06,18.23 18.21,18.23 10.13,0 18.19,-8.09 18.19,-18.23 0,-10.15 -8.06,-18.21 -18.19,-18.21 -9.95,0 -18.21,8.25 -18.21,18.21z"/>
  <path class="fil33" d="M9588.19 2232.48c0,10.14 8.06,18.2 18.19,18.2 10.14,0 18.21,-8.06 18.21,-18.2 0,-10.15 -8.25,-18.24 -18.21,-18.24 -10.13,0 -18.19,8.27 -18.19,18.24z"/>
  <path class="fil2 str22" d="M9837.51 2168.98c0,0 -27.01,-44.53 -84.6,-28.56"/>
  <path class="fil2 str22" d="M9653.83 2139.86c0,0 -41.64,-37.94 -82.35,3.55"/>
  <path class="fil2 str23" d="M9690.23 2185.13c0,0 -19.69,50.35 -36.4,81.73 -16.69,31.38 32.84,45.28 32.84,45.28"/>
  <path class="fil2 str23" d="M9799.43 2347.85c0,0 -32.08,46.77 -87.99,33.43"/>
  <path class="fil2 str23" d="M9996.63 2219.7c0,0 0.58,-56.73 42.77,-41.13"/>
  <path class="fil32 str21" d="M9342.75 3694.39l-720.47 0c-14.26,0 -25.89,-11.64 -25.89,-25.92 0,-14.28 11.63,-25.93 25.89,-25.93l720.47 0c14.26,0 25.91,11.65 25.91,25.93 -0.19,14.47 -11.65,25.92 -25.91,25.92z"/>
  <path class="fil32 str24" d="M8541.25 3081.49l0 0 0 -0.04c-4.36,-17.35 8.91,-34.34 26.79,-34.34l648.99 0c12.76,0 23.79,8.64 26.79,20.88l0 0.05 139.82 564.4 -705.85 0 -136.55 -550.95z"/>
  <path class="fil8" d="M9346.89 3642.73l-727.05 0 -138.46 -558.76c-6.01,-23.85 12.2,-47.14 36.77,-47.14l648.99 0c17.45,0 32.66,11.83 36.77,28.74l142.98 577.16z"/>
  <path class="fil32 str21" d="M9900.38 3694.39l-545.23 0c-13.33,0 -24.19,-10.88 -24.19,-24.23l0 -3.19c0,-13.34 10.86,-24.24 24.19,-24.24l545.23 0c13.33,0 24.22,10.9 24.22,24.24l0 3.19c0.18,13.54 -10.7,24.23 -24.22,24.23z"/>
  <path class="fil32 str24" d="M8931.07 3308.04l0 0.02c12.18,31.59 0.8,60.58 -18.7,68.26 -19.41,7.44 -47.27,-6.4 -59.47,-38.07 -12.2,-31.67 -0.74,-60.76 18.68,-68.25 19.43,-7.5 47.31,6.23 59.49,38.04z"/>
  <polygon class="fil24" points="10152.92,3642.73 10105.64,3029.1 10196.46,3287.44 "/>
  <path class="fil29" d="M10159.12 3091.49c0,0 112.2,603.85 139.96,702.68 18.03,63.87 148.99,107.47 190.08,22.93 8.99,-18.6 6.94,-49.62 5.99,-81.17 -6.38,-195.21 -142.77,-691.98 -142.77,-691.98l-193.25 47.56z"/>
  <path class="fil5" d="M10189.88 2735.83c0,0 67,34.38 123.28,131.5 56.3,97.14 133.97,268.5 129.1,310.02 -29.28,79.84 -260.44,162.51 -260.44,162.51 0,0 -154.4,-508.23 8.06,-604.03z"/>
  <path class="fil29" d="M10319.53 3677.48c0,0 -356.3,-7.89 -423.85,-48.09 -91.54,-54.67 -112.76,-31.01 -165.84,-44.16 -85.19,-21.23 -75.8,-3.95 -75.8,-3.95 0,0 3.93,49.43 69.79,55.62 33.21,3.19 82.92,17.29 72.43,25.37 0,0 -264.18,27.62 -317.29,32.31 -53.08,4.71 -27.2,45.66 13.33,55.07 0,0 24.2,30.62 63.42,21.23 0,0 -8.64,17.29 93.04,17.29 101.71,0 203.77,-54.12 255.37,-30.64 51.58,23.49 330.23,131.52 506.96,106.54 84.44,-12.04 85,-52.61 85,-95.45 0,-74.22 -54.8,-83.6 -176.56,-91.13z"/>
  <polygon class="fil34" points="2927.46,6543.64 2809.82,7030.43 2602.5,7030.43 2652.42,6543.64 "/>
  <path class="fil7" d="M2579.98 6928.6c0,0 -90.06,145.61 -22.51,171.54 67.55,25.93 512.22,28.19 621.97,11.84 109.75,-16.53 -244.85,-167.02 -325.9,-190.7 -81.05,-23.67 -107.33,99.78 -273.57,7.33z"/>
  <polygon class="fil34" points="2274.53,6543.64 2203.42,7030.43 1996.09,7030.43 1999.47,6543.64 "/>
  <path class="fil7" d="M1973.58 6928.6c0,0 -90.06,145.61 -22.51,171.54 67.54,25.93 512.21,28.19 621.98,11.84 109.75,-16.53 -244.86,-167.02 -325.91,-190.7 -81.05,-23.67 -107.32,99.78 -273.56,7.33z"/>
  <path class="fil26" d="M1926.11 4189.29l15.38 2597.66 329.11 0 232.46 -1908.53 264.92 774.45 -198.31 1134.27 357.98 0c0,0 314.65,-980.19 301.9,-1172.57 -12.76,-192.59 -376.01,-1504.39 -376.01,-1504.39l-927.43 79.11z"/>
  <polygon class="fil35 str19" points="2562,5019.64 2513.34,4877.21 2536.01,4646.74 "/>
  <line class="fil2 str19" x1="2111.88" y1="4157.91" x2="2092.9" y2= "6787.14" />
  <path class="fil34" d="M3119.59 2999.62c0,0 212.57,402.61 217.27,526.26 4.69,123.62 -131.34,96.01 -201.69,-15.41 -70.35,-111.61 -182.94,-428 -182.94,-428l167.36 -82.84z"/>
  <path class="fil1" d="M3159.37 3033.24c0,0 -60.97,108.6 -207.14,174.92 -30.2,13.73 -55.72,-22.55 -74.67,-65.57 -21.95,-50.17 -34.71,-109.34 -34.71,-109.34 0,0 -167.55,-519.12 -19.88,-500.52 0,0 125.7,8.83 218.01,191.07 24.22,47.53 61.93,143.35 93.45,234.3 8.99,25.93 17.45,51.27 24.94,75.15z"/>
  <path class="fil36" d="M3159.37 3033.24c0,0 -60.97,108.6 -207.14,174.92 -30.2,13.73 -55.72,-22.55 -74.67,-65.57 57.22,-25.74 165.5,-83.61 256.88,-184.49 8.99,25.93 17.45,51.27 24.94,75.15z"/>
  <path class="fil1" d="M2861.05 4138.55c-92.88,105.6 -704.34,90 -935.12,50.72 -40.52,-6.93 -80.49,-22.53 -16.52,-163.83 24.02,-52.8 13.7,-188.62 9.57,-375.39 -8.06,-369.18 -117.45,-981.67 17.45,-1051.96 80.86,-42.26 252.55,-97.88 377.32,-135.82 7.51,-2.08 14.81,-4.32 21.95,-6.58 72.8,-21.79 124.77,-36.26 124.77,-36.26 0,0 60.23,8.83 182.74,45.08 6.56,1.89 13.7,4.14 20.83,6.21 31.89,9.75 67.36,21.03 106.96,34.57 76.73,26.11 133.02,42.07 146.73,67.63 36.58,67.07 22.51,186.01 24.75,357.35 3,215.12 0.76,1115.08 -81.42,1208.27z"/>
  <polygon class="fil36" points="1890.28,3232.02 2022.17,2909.99 1926.11,3738.37 "/>
  <path class="fil36" d="M2664.04 2470.92c-2.82,45.47 -23.25,85.47 -54.03,114.79 -31.53,30.06 -74.12,48.29 -120.46,48.29 -95.89,0 -173.56,-76.85 -175.43,-171.91 7.5,-2.08 14.81,-4.32 21.95,-6.59 72.8,-21.79 124.77,-36.26 124.77,-36.26 0,0 60.22,8.83 182.74,45.08 6.38,2.45 13.33,4.5 20.45,6.59z"/>
  <path class="fil37" d="M2743.99 1762.1c0,0 -69.46,-66.49 -174.59,-82.3 -153.79,-23.14 -356.23,26.96 -396.56,262.02 -31.89,135.46 133.03,358.1 195.32,345.14 0,0 560.72,-355.42 375.84,-524.86z"/>
  <path class="fil34" d="M2643.03 2087.82l-15 291.59 -4.32 83.23c-1.69,35.33 -17.26,66.9 -41.28,89.63 -23.83,22.72 -56.11,36.44 -91.38,36.44 -74.67,0 -134.71,-61.62 -132.84,-136.21l3.74 -148.44 6.38 -246.69 274.69 30.45z"/>
  <path class="fil38" d="M2643.03 2145.87l-15 274.69c-128.91,5.25 -223.09,-47.34 -266.25,-117.24l6.38 -187.88 274.87 30.43z"/>
  <path class="fil34" d="M2745.29 1920.04c0,0 9.57,95.07 -3.76,200.09 -15.37,121.57 -9.94,264.34 -188.93,273.93 -191.01,10.15 -254.24,-203.85 -254.24,-203.85 0,0 -101.5,-18.97 -108.44,-87.55 -6.95,-68.58 63.97,-72.53 87.06,-53.36 0,0 26.25,-255.9 262.28,-255.9 208.83,0.19 206.03,126.63 206.03,126.63z"/>
  <path class="fil33" d="M2526.87 2103.79c0,10.51 -8.43,18.97 -18.93,18.97 -10.51,0 -18.95,-8.45 -18.95,-18.97 0,-10.54 8.44,-18.99 18.95,-18.99 10.31,0 18.93,8.45 18.93,18.99z"/>
  <path class="fil33" d="M2709.45 2094.02c0,10.51 -8.45,18.97 -18.95,18.97 -10.51,0 -18.95,-8.45 -18.95,-18.97 0,-10.54 8.44,-18.98 18.95,-18.98 10.5,0 18.95,8.44 18.95,18.98z"/>
  <path class="fil2 str25" d="M2433.26 2049.49c0,0 27.97,-46.22 87.8,-29.5"/>
  <path class="fil2 str25" d="M2623.9 2019.24c0,0 43.15,-39.45 85.53,3.76"/>
  <path class="fil2 str26" d="M2586.18 2066.2c0,0 20.45,52.24 37.9,84.94 17.45,32.48 -34.16,46.95 -34.16,46.95"/>
  <path class="fil2 str26" d="M2517.52 2256.53c0,0 42.2,40.95 96.42,15.97"/>
  <path class="fil2 str26" d="M2273.96 2124.8c0,0 -0.56,-58.78 -44.44,-42.82"/>
  <path class="fil37" d="M2331.94 1851.27c0,0 107.33,109.53 48.6,151.43 -65.29,46.6 -75.61,112.73 -75.61,112.73 0,0 1.31,-23.29 -27.76,-65.95 -29.1,-42.66 -92.51,-194.09 54.77,-198.22z"/>
  <path class="fil34" d="M1744.31 3021.22c0,0 -212.58,402.64 -217.27,526.26 -4.7,123.62 131.33,96.01 201.69,-15.41 70.37,-111.61 182.93,-428.01 182.93,-428.01l-167.36 -82.85z"/>
  <path class="fil34" d="M3260.13 3389.64c0,0 -316.89,-234.84 -334.92,-248.19 -30.58,-22.92 -75.23,-56.17 -91.35,-67.45 -25.54,-17.84 -174.69,-43.77 -195.52,-40.39 -20.64,3.38 -77.86,13.15 -94.57,19.34 -16.69,6.21 4.32,27.64 20.82,37.78 16.53,10.14 89.69,48.08 151.8,59.55 34.52,6.4 64.17,23.87 88.37,41.34 19.33,13.91 353.69,355.28 366.26,363.56l89.12 -165.54z"/>
  <path class="fil34" d="M2867.8 3101.45c0,0 -119.32,-111.79 -137.16,-110.11 -17.63,1.69 -5.06,26.87 41.86,65 15.94,12.96 33.02,33.43 47.28,40.21 27.94,13.14 48.02,4.9 48.02,4.9z"/>
  <path class="fil36 str27" d="M2771.65 3504.18l0.05 0c10.55,-1.19 19.28,-8.83 21.99,-19.23l0 0 103.93 -400.19c4.56,-17.59 -10.08,-34.44 -28.21,-32.29 -0.02,0 -0.02,0 -0.02,0l-435.08 52.04 -0.06 0 0 0c-10.54,1.21 -19.28,8.84 -21.98,19.24l0 0 -103.95 400.18c-4.54,17.61 10.09,34.45 28.24,32.31l435.1 -52.06zm0 0l-435.1 52.06 435.1 -52.06z"/>
  <path class="fil8" d="M2792.2 3527.75l-435.1 52.04c-25.33,3 -45.78,-20.47 -39.4,-45.08l103.95 -400.19c3.74,-14.46 15.94,-25.18 30.76,-26.87l435.11 -52.03c25.33,-3.03 45.78,20.47 39.41,45.08l-103.95 400.18c-3.75,14.29 -15.95,25 -30.77,26.88z"/>
  <path class="fil36 str27" d="M2457.45 3214.95l0 0 -0.02 0.1c-0.02,0.09 -0.1,0.27 -0.35,0.5 -0.25,0.2 -0.56,0.37 -0.93,0.45l-20.7 2.4 0 0c-0.44,0.05 -0.82,-0.08 -1.13,-0.45 -0.33,-0.37 -0.41,-0.76 -0.31,-1.19l0 0 20.45 -78.54 0 0 0.06 -0.19c0.08,-0.39 0.43,-0.76 0.96,-0.83l20.97 -2.45 0 0c0.44,-0.04 0.82,0.1 1.14,0.47 0.33,0.37 0.41,0.76 0.3,1.17l0 0.02 -20.45 78.52z"/>
  <path class="fil34" d="M1608.28 3428.36c132.84,5.25 548.05,-3.39 603.02,-22.18 23.64,-8.06 81.81,-20.29 96.63,-43.39 15.02,-23.48 27.78,-59.17 43.36,-61.81 11.99,-2.08 9.18,36.63 5.61,50.72 -6.75,25.37 -11.25,38.52 -20.27,50.17 -3,3.95 99.26,18.59 163.44,2.26 44.07,-11.28 35.82,24.05 6.19,38.88 0,0 11.81,30.8 -19.34,40.97 0,0 5.45,34.18 -24.57,36.82 -3.19,8.45 -12.57,23.68 -38.48,31.01 -37.51,10.51 -102.61,10.33 -152.16,12.39 -29.26,1.13 -594.95,89.63 -694.95,64.44 -41.65,-10.51 -11.63,-201.95 31.52,-200.27z"/>
  <path class="fil1" d="M1989.53 3075.31c0,0 -9.76,37.02 -24.21,75.17 -16.14,42.07 -38.08,85.28 -59.66,81.35 0,0 -293.44,-92.82 -283.69,-122.88 7.32,-22.37 19.89,-51.48 35.46,-83.8 48.6,-101.07 125.71,-232.96 156.86,-284.08 106.19,-174.54 149.72,-152.36 149.72,-152.36 148.79,-7.14 25.52,486.6 25.52,486.6z"/>
  <path class="fil36" d="M1965.32 3150.48c-16.14,42.07 -38.08,85.28 -59.66,81.35 0,0 -293.44,-92.82 -283.69,-122.88 7.32,-22.37 19.89,-51.48 35.46,-83.8 54.04,25.56 199.82,92.63 307.89,125.33z"/>
  <path class="fil36" d="M2058.4 3973.22c0,0 487.82,-78.35 750.49,-234.85 0,0 -293.82,294.4 -750.49,234.85z"/>
  <path class="fil4" d="M8142.35 5834.94l-1268.55 0c-62.49,0 -112.94,-50.72 -112.94,-113.09l0 -613.82c0,-62.56 50.66,-113.09 112.94,-113.09l1268.55 0c62.46,0 112.94,50.72 112.94,113.09l0 613.62c0.19,62.57 -50.47,113.29 -112.94,113.29z"/>
  <path class="fil2 str28" d="M6895.36 5617.94c118.21,0 118.21,-140.91 236.42,-140.91 118.18,0 118.18,-187.88 236.4,-187.88 118.21,0 118.21,71.95 236.4,71.95 118.21,0 118.21,-173.78 236.42,-173.78 118.19,0 118.19,272.61 236.4,272.61"/>
  <path class="fil8" d="M6929.89 5617.94c0,-18.98 -15.39,-34.39 -34.34,-34.39 -18.95,0 -34.32,15.41 -34.32,34.39 0,18.97 15.37,34.36 34.32,34.36 18.95,0 34.34,-15.39 34.34,-34.36z"/>
  <path class="fil8" d="M8111.93 5460.12c0,-18.97 -15.39,-34.38 -34.34,-34.38 -18.95,0 -34.32,15.41 -34.32,34.38 0,18.97 15.37,34.37 34.32,34.37 18.95,0 34.34,-15.4 34.34,-34.37z"/>
  <path class="fil5" d="M806.37 1402.99l1267.03 0c84.81,0 153.66,-68.96 153.66,-153.88l0 -387.22c0,-84.92 -68.85,-153.87 -153.66,-153.87l-1267.03 0c-84.81,0 -153.67,68.95 -153.67,153.87l0 387.22c0,85.11 68.86,153.88 153.67,153.88z"/>
  <polygon class="fil5" points="2038.31,1363.15 2038.31,1531.87 1857.63,1351.13 "/>
  <line class="fil2 str29" x1="798.3" y1="878.6" x2="1149.53" y2= "878.6" />
  <line class="fil2 str29" x1="1274.68" y1="878.6" x2="2081.46" y2= "878.6" />
  <line class="fil2 str29" x1="798.3" y1="1055.59" x2="1453.11" y2= "1055.59" />
  <line class="fil2 str29" x1="1553.3" y1="1055.59" x2="1747.12" y2= "1055.59" />
  <line class="fil2 str29" x1="1851.06" y1="1055.59" x2="2081.46" y2= "1055.59" />
  <line class="fil2 str29" x1="798.3" y1="1232.39" x2="946.52" y2= "1232.39" />
  <line class="fil2 str29" x1="1037.33" y1="1232.39" x2="1572.06" y2= "1232.39" />
  <path class="fil36" d="M8692.64 775.51l-325.15 0c-60.43,0 -109.4,-49.04 -109.4,-109.54l0 -325.6c0,-60.5 48.97,-109.54 109.4,-109.54l325.15 0c60.41,0 109.38,49.04 109.38,109.54l0 325.6c0,60.5 -48.97,109.54 -109.38,109.54z"/>
  <path class="fil8" d="M8715.14 475.06l-8.06 -35.7c-1.5,-6.95 -8.64,-11.28 -15.58,-9.77l-21.03 4.88c-5.43,1.31 -10.86,-1.31 -13.87,-6.01 -8.27,-12.96 -18.4,-24.61 -30.02,-34.38 -4.7,-3.95 -6.2,-10.34 -3.58,-15.79l10.51 -21.6c3.19,-6.39 0.37,-14.28 -6,-17.29l-33.03 -15.97c-6.38,-3.2 -14.26,-0.38 -17.26,6.01l-11.25 23.49c-2.43,5.26 -8.25,7.89 -13.87,7.14 -6.96,-0.94 -14.26,-1.51 -21.4,-1.51 -7.33,0 -14.44,0.57 -21.38,1.51 -5.83,0.75 -11.46,-1.88 -13.89,-7.14l-11.25 -23.49c-3.19,-6.39 -10.89,-9.21 -17.26,-6.01l-33.03 15.97c-6.38,3.2 -9.19,10.89 -6,17.29l10.51 21.6c2.61,5.45 0.93,11.84 -3.56,15.79 -11.65,9.95 -21.95,21.42 -30.02,34.38 -3.01,4.7 -8.46,7.33 -13.89,6.01l-21.03 -4.88c-6.94,-1.51 -13.87,2.82 -15.55,9.77l-8.07 35.7c-1.5,6.95 2.8,13.91 9.75,15.59l26.65 6.01c-0.21,3.76 -0.58,7.33 -0.58,11.09 0,17.85 3.19,35.14 9.01,50.91 1.87,5.26 0.55,11.28 -3.95,14.85l-10.31 8.27c-5.64,4.5 -6.56,12.58 -2.06,18.22l21.75 28.75c4.51,5.63 12.57,6.57 18.21,2.06l7.12 -5.82c4.88,-3.76 11.65,-3.57 16.34,0.19 15,11.64 32.08,20.66 50.85,26.11 5.61,1.69 9.75,6.57 9.75,12.58l0 7.52c0,7.14 5.82,12.96 12.94,12.96l36.58 0c7.15,0 12.95,-5.82 12.95,-12.96l0 -7.52c0,-6.01 4.13,-10.9 9.77,-12.58 18.75,-5.45 35.83,-14.29 50.84,-26.11 4.88,-3.76 11.63,-4.14 16.32,-0.19l7.15 5.82c5.61,4.51 13.68,3.57 18.18,-2.06l22.9 -28.56c4.49,-5.64 3.56,-13.71 -2.08,-18.22l-10.31 -8.27c-4.5,-3.57 -5.82,-9.58 -3.95,-14.85 5.83,-15.97 9.01,-33.07 9.01,-50.91 0,-3.76 -0.36,-7.33 -0.55,-11.08l26.63 -6.01c7.14,-1.88 11.45,-8.83 9.95,-15.79zm-185 125.51c-51.24,0 -92.7,-41.53 -92.7,-92.82 0,-51.3 41.46,-92.82 92.7,-92.82 51.21,0 92.67,41.52 92.67,92.82 0,51.29 -41.46,92.82 -92.67,92.82z"/>
  <path class="fil4" d="M11578.44 2931.86c33.31,-205.38 -105.95,-398.85 -311.03,-432.14 -205.08,-33.29 -398.35,106.19 -431.67,311.54 -33.31,205.35 105.95,398.83 311.03,432.14 205.08,33.29 398.35,-106.19 431.67,-311.54z"/>
  <path class="fil1 str28" d="M11413.01 2921.01c26.85,-113.81 -43.52,-227.81 -157.18,-254.67 -113.64,-26.85 -227.55,43.64 -254.43,157.43 -26.85,113.81 43.5,227.84 157.16,254.69 113.67,26.85 227.57,-43.64 254.44,-157.45z"/>
  <g>
   <path class="fil1" d="M11206.81 2733.2l0 138.46 -72.98 73.09 72.98 -211.54zm0 0l0 0 0 0z"/>
  </g>
  <polyline class="fil2 str30" points="11206.81,2734.66 11206.81,2873.12 11133.83,2946.21 "/>
  <line class="fil2 str28" x1="11206.81" y1="2659.92" x2="11206.81" y2= "2680.21" />
  <line class="fil2 str28" x1="11206.81" y1="3063.3" x2="11206.81" y2= "3083.4" />
  <line class="fil2 str28" x1="11418.28" y1="2871.66" x2="11398.01" y2= "2871.66" />
  <line class="fil2 str28" x1="11015.64" y1="2871.66" x2="10995.35" y2= "2871.66" />
 </g>
</svg>
